<svg version="1.2" xmlns="http://www.w3.org/2000/svg" viewBox="0 0 4000 4000" width="4000" height="4000">
	<title>6fa677b8-1efa-4428-b429-ba8119910084</title>
	<style>
		.s0 { fill: #ffad40 } 
		.s1 { fill: #ffffff } 
		.s2 { fill: #fff3e9 } 
		.s3 { fill: #f9d3b7 } 
		.s4 { fill: #512717 } 
		.s5 { fill: #ff9343 } 
		.s6 { fill: #ff8080 } 
	</style>
	<g id="Layer 1">
		<g id="&lt;Group&gt;">
			<g id="&lt;Group&gt;">
			</g>
			<g id="&lt;Group&gt;">
				<g id="&lt;Group&gt;">
					<path id="&lt;Path&gt;" class="s0" d="m2998.7 1268.8v1535c0 75-60.7 135.9-135.6 135.9h-1725.4c-74.9 0-135.6-60.9-135.6-135.9v-1535c0-104.1 84.2-188.4 188.1-188.4h1620.4c103.9 0 188.1 84.3 188.1 188.4z"/>
				</g>
				<g id="&lt;Group&gt;" style="opacity: .6">
					<path id="&lt;Path&gt;" class="s1" d="m2810.6 1080.4h-1620.4c-103.9 0-188.1 84.3-188.1 188.4v73.5c0-104.1 84.2-188.5 188.1-188.5h1620.4c103.9 0 188.1 84.4 188.1 188.5v-73.5c0-104.1-84.2-188.4-188.1-188.4z"/>
				</g>
				<g id="&lt;Group&gt;">
					<path id="&lt;Path&gt;" class="s2" d="m2994.4 2587.4c-10.1-181.6-148.6-271.7-304-245.1-113.7 27.9-205.8 106.3-337.7 39.9-99.5-52.8-197.8-106.8-354.5-105.4-156.6-1.4-254.9 52.6-354.4 105.4-131.9 66.4-224.1-12-337.7-39.9-155.4-26.6-293.9 63.5-304 245.1q-1.2 21.1 0 44v172.4c0 75 60.7 135.9 135.6 135.9h860.5 860.5c75 0 135.7-60.9 135.7-135.9v-172.4q1.2-22.9 0-44z"/>
				</g>
				<g id="&lt;Group&gt;">
					<g id="&lt;Group&gt;">
						<path id="&lt;Path&gt;" class="s3" d="m1002.1 2587.4q-1.2 21.1 0 44z"/>
					</g>
					<g id="&lt;Group&gt;">
						<path id="&lt;Path&gt;" class="s3" d="m2858.7 2770.3h-860.5-860.5c-74.9 0-135.6-60.8-135.6-135.8v169.3c0 75 60.7 135.9 135.6 135.9h860.5 860.5c75 0 135.7-60.9 135.7-135.9v-169.3c0 75-60.7 135.8-135.7 135.8z"/>
					</g>
					<g id="&lt;Group&gt;">
						<path id="&lt;Path&gt;" class="s3" d="m2994.4 2631.4q1.2-22.9 0-44z"/>
					</g>
				</g>
				<g id="&lt;Group&gt;">
					<g id="&lt;Group&gt;">
						<path id="&lt;Path&gt;" class="s2" d="m2323.3 2863.3c26.1 28 45.6 57.2 108.8 57.2 73.9-4.3 86.4-102.2 39.4-171.7q1.7-0.8 3.4-1.6c34-17.3 50.5-57.3 39.5-93.9-13.9-46.1-61.8-83.6-118.4-79.9-22.7 4.2-33.2 20.2-46.6 39.2-11.9 16.8-30.7 27.4-51.2 28.7-196.2 12.2-396.1 12.5-599.9 0-20.6-1.3-39.4-11.9-51.3-28.7-13.4-19-23.9-35-46.6-39.2-56.6-3.7-104.5 33.8-118.4 79.9-11 36.6 5.6 76.6 39.5 93.9q1.7 0.8 3.5 1.6c-47 69.5-34.6 167.4 39.3 171.7 63.2 0 82.7-29.2 108.9-57.2 13.9-15 33-24.3 53.4-25.8q271.6-19.3 543.2 0c20.4 1.5 39.5 10.8 53.5 25.8z"/>
					</g>
					<g id="&lt;Group&gt;">
						<path id="&lt;Path&gt;" class="s3" d="m1993 2652.9c-27.9 129.8-200.1 95.4-250.1-5z"/>
					</g>
					<g id="&lt;Group&gt;">
						<path id="&lt;Path&gt;" class="s3" d="m1993 2652.9c27.9 129.8 200.2 95.4 250.1-5z"/>
					</g>
					<g id="&lt;Group&gt;">
						<path id="&lt;Compound Path&gt;" class="s4" d="m2432.1 2940.8c-65.9 0-92.6-29.5-116.2-55.5q-3.6-4.1-7.4-8.1 0 0 0 0c-10.7-11.4-24.9-18.3-40.1-19.4-179.3-12.8-361.1-12.8-540.3 0-15.2 1.1-29.5 8-40.1 19.4q-3.8 4-7.5 8.1c-23.6 26-50.3 55.5-116.2 55.5q-0.6 0-1.2 0c-33.2-1.9-59.6-19.3-74.2-49-18.9-38.2-15.2-90.7 8.3-136-32.4-24.7-46.8-67.7-34.6-108.3 17.7-58.7 76.2-98.4 139.1-94.4q1.3 0 2.5 0.3c29.8 5.5 44 25.6 57.7 45.1l1.7 2.3c8.4 12 21.5 19.3 35.9 20.2 200.2 12.2 401.2 12.2 597.4 0 14.4-0.9 27.5-8.2 35.9-20.1l1.7-2.4c13.7-19.5 27.9-39.6 57.8-45.1q1.2-0.3 2.4-0.3c63-4 121.5 35.7 139.1 94.4 12.3 40.6-2.2 83.6-34.6 108.3 23.5 45.3 27.2 97.8 8.3 136-14.6 29.7-41 47.1-74.2 49q-0.6 0-1.2 0zm-94-91.4q4 4.3 7.9 8.6c22.1 24.4 38.1 42 85.5 42.2 18.3-1.2 31.6-10.1 39.6-26.4 15-30.4 8.3-77.1-16.4-113.6-3.4-5-4.4-11.2-2.8-17 1.7-5.7 5.8-10.5 11.2-13q1.3-0.5 2.6-1.2c24.9-12.6 37.4-42.6 29.3-69.8-10.2-33.8-47.4-68.1-96.4-65.6-12.3 2.7-18.9 11.3-30.9 28.4l-1.7 2.4c-15.6 22-39.8 35.6-66.5 37.2-198 12.3-400.7 12.3-602.4 0-26.8-1.7-51.1-15.2-66.7-37.3l-1.6-2.3c-12.1-17.1-18.6-25.7-30.9-28.4-49.1-2.5-86.3 31.8-96.4 65.6-8.2 27.2 4.4 57.2 29.2 69.8q1.3 0.7 2.6 1.2c5.5 2.5 9.6 7.3 11.2 13 1.6 5.8 0.6 12-2.7 17-24.7 36.5-31.5 83.2-16.5 113.6 8 16.3 21.3 25.2 39.6 26.4 47.5-0.2 63.5-17.8 85.5-42.2q3.9-4.3 7.9-8.6c17.7-18.9 41.4-30.3 66.9-32.2 181.2-12.9 364.9-12.9 546 0 25.5 1.9 49.3 13.3 66.9 32.2z"/>
					</g>
					<g id="&lt;Group&gt;">
						<path id="&lt;Path&gt;" class="s4" d="m1530.8 2729.3c12.8 5.7 24.3 14.2 34.6 23.3 9.7 8.7 19.2 19 27.6 28.9-24.1-5.3-49.7-13.6-73.9-13.2-11.7 0.1-21.2-9.3-21.3-21-0.2-17.2 18.7-26.9 33-18z"/>
					</g>
					<g id="&lt;Group&gt;">
						<path id="&lt;Path&gt;" class="s4" d="m2477.3 2768.3c-20.7 2.3-43.1 8.4-63.8 12-3.3 0.5-6.7 0.9-10.1 1.2 20.1-18.5 37.6-38 62.2-52.2 10-5.8 22.7-2.4 28.5 7.6 7.9 13-1.7 30.7-16.8 31.4z"/>
					</g>
					<g id="&lt;Group&gt;">
						<path id="&lt;Path&gt;" class="s3" d="m1614.9 2870.7q0 0 0 0c7.8-5.6 13.8-13.2 20.5-20.2 12.3-12.8 26.7-23.5 41.1-34-16.6-5.1-34.6-5.2-51.2-0.3-16.7 5-32.7 15-50 13.7-13.3-0.9-23-2.5-31.4 9.8-7.3 10.7-5.3 19.8 3.7 28.5 17.4 16.9 48.4 16.4 67.3 2.5z"/>
					</g>
					<g id="&lt;Group&gt;">
						<path id="&lt;Path&gt;" class="s3" d="m1557.8 2715.6q0 0 0 0c6.4-1.3 11.5-6.5 14.8-12.2 9.7-16.7 7.1-38.8-3.3-55.1-15.3-23.8-44.5-2.5-51.4 18.3-6.4 19.4 18.4 53.2 39.9 49z"/>
					</g>
					<g id="&lt;Group&gt;">
						<path id="&lt;Path&gt;" class="s3" d="m2388.1 2870.7q0 0 0 0c-7.8-5.6-13.9-13.2-20.5-20.2-12.4-12.8-26.8-23.5-41.1-34 16.6-5.1 34.6-5.2 51.2-0.3 16.7 5 32.6 15 50 13.7 13.2-0.9 23-2.5 31.4 9.8 7.3 10.7 5.2 19.8-3.7 28.5-17.4 16.9-48.4 16.4-67.3 2.5z"/>
					</g>
					<g id="&lt;Group&gt;">
						<path id="&lt;Path&gt;" class="s3" d="m2445.2 2715.6q0 0 0 0c-6.4-1.3-11.5-6.5-14.8-12.2-9.7-16.7-7.1-38.8 3.3-55.1 15.3-23.8 44.4-2.5 51.3 18.3 6.5 19.4-18.3 53.2-39.8 49z"/>
					</g>
				</g>
				<g id="&lt;Group&gt;">
					<g id="&lt;Group&gt;">
						<path id="&lt;Path&gt;" class="s4" d="m1715.6 2206.3c10.1 111.6-57.5 208.9-151.1 217.5-93.5 8.5-177.6-75.1-187.7-186.7-10.2-111.6 57.4-208.9 151-217.5 93.6-8.5 177.6 75.1 187.8 186.7z"/>
					</g>
					<g id="&lt;Group&gt;">
						<path id="&lt;Path&gt;" class="s1" d="m1677.5 2197.4c6.2 44.2-15.8 83.9-49.2 88.7-33.4 4.7-65.6-27.3-71.9-71.5-6.3-44.3 15.7-84 49.2-88.8 33.4-4.7 65.6 27.3 71.9 71.6z"/>
					</g>
					<g id="&lt;Group&gt;" style="opacity: .4">
						<path id="&lt;Path&gt;" class="s1" d="m1528.7 2283.1c9.8 28 0.5 56.7-20.7 64.1-21.1 7.4-46.2-9.3-55.9-37.4-9.8-28-0.5-56.7 20.7-64.1 21.1-7.3 46.2 9.4 55.9 37.4z"/>
					</g>
				</g>
				<g id="&lt;Group&gt;">
					<g id="&lt;Group&gt;">
						<path id="&lt;Path&gt;" class="s4" d="m2285.8 2206.3c-10.2 111.6 57.4 208.9 151 217.5 93.6 8.5 177.6-75.1 187.8-186.7 10.1-111.6-57.5-208.9-151.1-217.5-93.5-8.5-177.6 75.1-187.7 186.7z"/>
					</g>
					<g id="&lt;Group&gt;">
						<path id="&lt;Path&gt;" class="s1" d="m2323.9 2197.4c-6.3 44.2 15.7 83.9 49.1 88.7 33.5 4.7 65.7-27.3 71.9-71.5 6.3-44.3-15.7-84-49.2-88.8-33.4-4.7-65.6 27.3-71.8 71.6z"/>
					</g>
					<g id="&lt;Group&gt;" style="opacity: .4">
						<path id="&lt;Path&gt;" class="s1" d="m2472.6 2283.1c-9.8 28-0.5 56.7 20.7 64.1 21.1 7.4 46.2-9.3 55.9-37.4 9.8-28 0.5-56.7-20.6-64.1-21.2-7.3-46.3 9.4-56 37.4z"/>
					</g>
				</g>
				<g id="&lt;Group&gt;">
					<path id="&lt;Path&gt;" class="s2" d="m1672.4 1820.4c-18.3 42.8-80.9 56.9-139.8 31.6-58.9-25.4-91.7-80.6-73.4-123.4 18.4-42.8 81-56.9 139.9-31.5 58.9 25.3 91.7 80.5 73.3 123.3z"/>
				</g>
				<g id="&lt;Group&gt;">
					<path id="&lt;Path&gt;" class="s2" d="m2323.6 1820.4c18.4 42.8 81 56.9 139.8 31.6 58.9-25.4 91.8-80.6 73.4-123.4-18.4-42.8-81-56.9-139.8-31.5-58.9 25.3-91.8 80.5-73.4 123.3z"/>
				</g>
				<g id="&lt;Group&gt;">
					<g id="&lt;Group&gt;">
						<g id="&lt;Group&gt;">
							<path id="&lt;Path&gt;" class="s2" d="m1993 2540.3c-43.4 201.7-259.1 183.7-319.7-22.3z"/>
						</g>
						<g id="&lt;Group&gt;">
							<path id="&lt;Path&gt;" class="s4" d="m1673.3 2518c18.6 34.5 39.2 67.8 67.5 94 50.1 49.2 127.5 69.1 181.2 15 24.8-24.2 38.8-57.9 48.1-91.6 3.2-12.8 16.4-20.5 29-16.9 11.8 3.2 18.9 15 16.8 26.8-3.8 21.1-10 42.3-19.6 62.4-29.5 65.1-96.9 109.1-169.3 95.3-87.4-15.1-147-101.6-153.7-185z"/>
						</g>
						<g id="&lt;Group&gt;">
							<path id="&lt;Path&gt;" class="s2" d="m1995.4 2540.3c43.4 201.7 259.2 183.7 319.8-22.3z"/>
						</g>
						<g id="&lt;Group&gt;">
							<path id="&lt;Path&gt;" class="s4" d="m2315.2 2518c-6.7 83.4-66.3 169.9-153.7 185-72.4 13.8-139.9-30.2-169.3-95.3-9.6-20.1-15.8-41.3-19.7-62.4-2.3-12.8 6.1-25 18.9-27.3 12.2-2.3 24 5.5 26.9 17.4 13 48.9 39.2 99.6 88.6 117.8 93.6 30.8 169.9-59.4 208.3-135.2z"/>
						</g>
					</g>
					<g id="&lt;Group&gt;">
						<path id="&lt;Path&gt;" class="s4" d="m1834.9 2388.4c0-67.8 316.3-67.8 316.3 0q-7.3 92-73.3 140.4c-50.6 37.1-119 39.6-169.7 2.7-42-30.6-68-78.9-73.3-143.1z"/>
					</g>
					<g id="&lt;Group&gt;" style="opacity: .6">
						<path id="&lt;Path&gt;" class="s1" d="m2068.8 2388.6c0-15-33.9-27.2-75.8-27.2-41.8 0-75.7 12.2-75.7 27.2 0 15 33.9 27.1 75.7 27.1 41.9 0 75.8-12.1 75.8-27.1z"/>
					</g>
				</g>
				<g id="&lt;Group&gt;">
					<path id="&lt;Compound Path&gt;" class="s4" d="m2863.1 2966.2h-1725.4c-89.4 0-162.2-72.8-162.2-162.4v-1535c0-118.6 96.3-215 214.7-215h1620.4c118.4 0 214.6 96.4 214.6 215v1535c0 89.6-72.7 162.4-162.1 162.4zm-1672.9-1859.2c-89.1 0-161.6 72.5-161.6 161.8v1535c0 60.3 49 109.3 109.1 109.3h1725.4c60.1 0 109.1-49 109.1-109.3v-1535c0-89.3-72.5-161.8-161.6-161.8z"/>
				</g>
				<g id="&lt;Group&gt;">
					<g id="&lt;Group&gt;">
						<path id="&lt;Path&gt;" class="s0" d="m2998.7 1518c8.9-302-0.4-456.9-116.7-565.9-61.4-57.5-146.4-83.5-228.7-66.7-182.2 37.2-368.4 240.1-486.4 467.3z"/>
					</g>
					<g id="&lt;Group&gt;" style="opacity: .6">
						<path id="&lt;Path&gt;" class="s1" d="m2655.6 947.7c89-16.8 181 9.2 247.4 66.7 28.2 24.4 50.5 51.2 68.2 81.3-18.3-57.4-46.5-103.6-89.2-143.6-61.4-57.5-146.4-83.5-228.7-66.7-181.7 37.1-367.4 239-485.4 465.4 127.6-200.2 309.4-369.5 487.7-403.1z"/>
					</g>
					<g id="&lt;Group&gt;">
						<path id="&lt;Path&gt;" class="s5" d="m2660.4 1054.8c136.2-33.7 285.5-28.7 328.9 119.8v447.3c-40.8-55.7-81.4-106-121.6-132.6l25.6-38.3-27.2-121.2-79.7-166.4-126-103.8"/>
					</g>
					<g id="&lt;Group&gt;">
						<path id="&lt;Path&gt;" class="s4" d="m2166.9 1352.7c45.7-141.9 133.6-268.4 244.5-367.3 71.9-63.4 156.8-118.6 253.4-133.9 86.5-12.7 176.6 17.5 240.1 77 87.4 81.9 115.6 190.3 124.2 305.9 6.8 91.2 3.8 184.9 0.4 276.3-1.6 63.5-2.2 155.4-4.2 218.2-1.8 34-51.2 34.5-53.1 0-1.8-73-3.2-146.1-3.8-219.2 1-62.1 1.5-128.2-0.1-190-2.4-69.5-7.3-140.5-26.7-207.5-16.3-55.6-47.1-106-90.7-143.7-99.6-83.9-213-64.5-317.7-1.4-59.8 36.2-113.2 83.3-161.1 134.5-74.7 78.9-138.3 163.7-205.2 251.1z"/>
					</g>
					<g id="&lt;Group&gt;">
						<path id="&lt;Path&gt;" class="s2" d="m2883.7 1468c-29.7-23.8-60.1-44.4-91.3-61.9-103.1-58.2-214.2-84.1-330.8-88.2 72.8-127.3 134.9-206.5 198.5-233.5q3.8-1.6 7.7-3c29.3-10 62-7.4 89.3 7.8 89.1 49.6 122 207.4 126.6 378.8z"/>
					</g>
					<g id="&lt;Group&gt;">
						<path id="&lt;Path&gt;" class="s3" d="m2807.9 1405.4c0 0-5.7 0.3-15.5 0.7-103.1-58.2-214.2-84.1-330.8-88.2 72.8-127.3 134.9-206.5 198.5-233.5q3.8-1.6 7.7-3c8.5-0.1 14.9-0.2 14.9-0.2-28.4 136.3 2.5 248.7 125.2 324.2z"/>
					</g>
					<g id="&lt;Group&gt;">
						<path id="&lt;Compound Path&gt;" class="s4" d="m2883.7 1494.6c-5.9 0-11.8-2-16.6-5.9-113.9-91.4-246.8-138.6-406.4-144.3-9.3-0.3-17.8-5.5-22.3-13.6-4.5-8.2-4.4-18.1 0.2-26.2 82.2-143.6 145.3-216.8 211.1-244.7 38.9-16.5 83.9-14.3 120.3 6 87.2 48.6 134.4 183.6 140.2 401.4 0.3 10.3-5.4 19.9-14.7 24.5-3.7 1.9-7.8 2.8-11.8 2.8zm-377.2-200.7c132 11 246.6 50.4 348.1 119.5-10.8-161-49.4-267-110.4-301-22.2-12.4-49.8-13.7-73.8-3.5-48.2 20.4-99.4 78-163.9 185z"/>
					</g>
					<g id="&lt;Group&gt;">
						<path id="&lt;Compound Path&gt;" class="s4" d="m2733.6 1395.4c-2.4 0-4.9-0.4-7.2-1.4-86.5-36.3-175.7-55.6-265.2-57.4-6.7-0.1-12.8-3.9-16.1-9.8-3.2-5.9-3-13.1 0.6-18.8 68.6-110.9 141.7-138.7 183.8-117 23.1 11.8 40.3 41 34.3 90.1 31.3-20.3 62.9-25.2 85.3-10.6 10.9 7.1 43.2 36.4 1 115.1-3.3 6.2-9.8 9.8-16.5 9.8zm-72.2-64.6q31.8 9.6 63.1 21.9c13.2-30.2 10.3-46.7 4.2-50.7-9.4-6.1-37.3 0-67.3 28.8zm-165.6-30.2c40.2 2.7 80.4 8.7 120.2 18.1 19-53.6 12.1-86.2-3.6-94.3-19.9-10.2-67 8.1-116.6 76.2z"/>
					</g>
				</g>
				<g id="&lt;Group&gt;">
					<g id="&lt;Group&gt;">
						<path id="&lt;Path&gt;" class="s0" d="m1001.3 1518c-8.9-302 0.4-456.9 116.7-565.9 61.4-57.5 146.4-83.5 228.7-66.7 182.2 37.2 368.4 240.1 486.4 467.3z"/>
					</g>
					<g id="&lt;Group&gt;" style="opacity: .6">
						<path id="&lt;Path&gt;" class="s1" d="m1344.4 947.7c-89-16.8-181 9.2-247.4 66.7-28.2 24.4-50.5 51.2-68.2 81.3 18.3-57.4 46.5-103.6 89.2-143.6 61.4-57.5 146.4-83.5 228.7-66.7 181.7 37.1 367.4 239 485.4 465.4-127.6-200.2-309.4-369.5-487.7-403.1z"/>
					</g>
					<g id="&lt;Group&gt;">
						<path id="&lt;Path&gt;" class="s5" d="m1339.6 1054.8c-136.2-33.7-285.5-28.7-328.9 119.8v447.3c40.8-55.7 81.4-106 121.6-132.6l-25.6-38.3 27.2-121.2 79.7-166.4 126-103.8"/>
					</g>
					<g id="&lt;Group&gt;">
						<path id="&lt;Path&gt;" class="s4" d="m1833.1 1352.7c-66.9-87.4-130.5-172.2-205.2-251.1-47.9-51.2-101.3-98.3-161.1-134.5-104.8-63.1-218.1-82.6-317.7 1.4-43.6 37.7-74.4 88.1-90.7 143.7-19.3 67-24.3 138-26.7 207.5-1.6 61.7-1.1 128.1-0.1 190-0.6 73.1-2 146.2-3.8 219.2-1.7 33.9-51 34.7-53.1 0.1-2-62.4-2.8-154.7-4.2-218.3-3.4-91.4-6.4-185 0.4-276.3 8.6-115.6 36.8-224 124.2-305.9 63.5-59.5 153.6-89.7 240.1-77 96.6 15.3 181.5 70.5 253.4 133.9 110.9 98.9 198.8 225.4 244.5 367.3z"/>
					</g>
					<g id="&lt;Group&gt;">
						<path id="&lt;Path&gt;" class="s2" d="m1116.3 1468c29.7-23.8 60.1-44.4 91.3-61.9 103.1-58.2 214.2-84.1 330.8-88.2-72.8-127.3-134.9-206.5-198.5-233.5q-3.8-1.6-7.7-3c-29.3-10-62-7.4-89.3 7.8-89.1 49.6-122 207.4-126.6 378.8z"/>
					</g>
					<g id="&lt;Group&gt;">
						<path id="&lt;Path&gt;" class="s3" d="m1192.1 1405.4c0 0 5.7 0.3 15.5 0.7 103.1-58.2 214.2-84.1 330.8-88.2-72.8-127.3-134.9-206.5-198.5-233.5q-3.8-1.6-7.7-3c-8.5-0.1-14.9-0.2-14.9-0.2 28.4 136.3-2.5 248.7-125.2 324.2z"/>
					</g>
					<g id="&lt;Group&gt;">
						<path id="&lt;Compound Path&gt;" class="s4" d="m1116.3 1494.6c-4 0-8.1-0.9-11.8-2.8-9.3-4.6-15-14.2-14.7-24.5 5.8-217.8 53-352.8 140.2-401.4 36.4-20.3 81.4-22.5 120.3-6 65.8 27.9 128.9 101.1 211.1 244.7 4.6 8.1 4.7 18 0.2 26.2-4.5 8.1-13 13.3-22.3 13.6-159.6 5.7-292.5 52.9-406.4 144.3-4.8 3.9-10.7 5.9-16.6 5.9zm179.9-392.5c-14.1 0-28.1 3.4-40.4 10.3-61 34-99.6 140-110.4 301 101.5-69.1 216.1-108.5 348.1-119.5-64.5-107-115.7-164.6-163.9-185-10.7-4.6-22.1-6.8-33.4-6.8z"/>
					</g>
					<g id="&lt;Group&gt;">
						<path id="&lt;Compound Path&gt;" class="s4" d="m1266.4 1395.4c-6.7 0-13.2-3.6-16.5-9.8-42.2-78.7-9.9-108 1-115.1 22.4-14.6 54-9.7 85.3 10.6-6-49.1 11.2-78.3 34.3-90.1 42.1-21.6 115.2 6.1 183.8 117 3.6 5.7 3.8 12.9 0.6 18.8-3.3 5.9-9.4 9.7-16.1 9.8-89.5 1.8-178.7 21.1-265.2 57.4-2.3 1-4.8 1.4-7.2 1.4zm14-95.5c-3.8 0-6.9 0.7-9.1 2.1-6.1 4-9 20.5 4.2 50.7q31.3-12.3 63.1-21.9c-23.2-22.2-45.1-30.9-58.2-30.9zm119.5-78.2c-4.8 0-8.9 1-12.3 2.7-15.7 8.1-22.6 40.7-3.6 94.3 39.8-9.4 80-15.4 120.2-18.1-41.2-56.6-80.7-78.9-104.3-78.9z"/>
					</g>
				</g>
				<g id="&lt;Group&gt;">
					<g id="&lt;Group&gt;">
						<path id="&lt;Path&gt;" class="s2" d="m1464.4 2939.7h-326.7q-2.8 0-5.6-0.2c-125-5-158.4-175.1-46.7-231.7 146.6-74.1 414.2 18.8 379 231.9z"/>
					</g>
					<g id="&lt;Group&gt;">
						<path id="&lt;Path&gt;" class="s1" d="m1088.4 2755.5c128.3-65 349.4-1.8 378.8 158 10.1-194.4-241.4-276.7-381.8-205.7-58.2 29.5-77 89.8-64 141.5 4.7-37.4 26.2-73.2 67-93.8z"/>
					</g>
					<g id="&lt;Group&gt;">
						<path id="&lt;Path&gt;" class="s3" d="m1464.4 2877.3h-326.7q-2.8 0-5.6-0.1c-60-2.4-98.9-42.9-110.8-90.6-17.4 68.7 25.3 149.5 110.8 152.9q2.8 0.2 5.6 0.2h326.7c4-24.3 4-47 0.8-68.1-0.3 1.9-0.5 3.8-0.8 5.7z"/>
					</g>
					<g id="&lt;Group&gt;">
						<path id="&lt;Compound Path&gt;" class="s4" d="m1464.4 2966.9h-326.7q-3.3 0-6.7-0.2c-68.6-2.8-122.5-48.2-137.1-115.8-14.9-68.6 17-135.8 79.3-167.4 95.5-48.3 232.2-33.8 325 34.4 74.9 55.2 108 135.5 93 226.2-2.2 13.1-13.5 22.8-26.8 22.8zm-263.9-257.3c-37.1 0-72.8 7.3-102.8 22.5-49.2 24.9-58.1 73.3-50.7 107.2 7.3 33.9 33.8 70.9 86.2 73.1q2.3 0.1 4.5 0.1h302.4c4.2-75.7-36.9-123.4-74.1-150.7-46.4-34.2-107.5-52.2-165.5-52.2z"/>
					</g>
					<g id="&lt;Group&gt;">
						<path id="&lt;Path&gt;" class="s4" d="m1155.8 2822.5c7.1 34.4 21.6 65.5 46.1 89.9 20.6 23.5-16.8 50.8-32.8 23.9-18.5-35.1-21.4-76.4-13.3-113.8z"/>
					</g>
					<g id="&lt;Group&gt;">
						<path id="&lt;Path&gt;" class="s4" d="m1320.8 2822.5c8.1 37.4 5.2 78.7-13.3 113.7-13.1 23.7-48 5.7-36.4-18.8 5.6-8.4 13.6-14.6 19.3-23.4 15.6-21 24.8-45.1 30.4-71.5z"/>
					</g>
				</g>
				<g id="&lt;Group&gt;">
					<g id="&lt;Group&gt;">
						<path id="&lt;Path&gt;" class="s2" d="m2541.5 2938.1h326.7q2.8 0 5.5-0.2c125.1-5 158.5-175.1 46.7-231.7-146.5-74.1-414.1 18.8-378.9 231.9z"/>
					</g>
					<g id="&lt;Group&gt;">
						<path id="&lt;Path&gt;" class="s1" d="m2917.5 2753.9c-128.3-65-349.4-1.8-378.8 158-10.1-194.4 241.4-276.7 381.7-205.7 58.3 29.5 77.1 89.8 64.1 141.5-4.7-37.4-26.2-73.2-67-93.8z"/>
					</g>
					<g id="&lt;Group&gt;">
						<path id="&lt;Path&gt;" class="s3" d="m2541.5 2875.7h326.7q2.8 0 5.5-0.1c60.1-2.4 99-42.9 110.9-90.6 17.3 68.7-25.3 149.5-110.9 152.9q-2.7 0.2-5.5 0.2h-326.7c-4-24.3-4-47-0.8-68.1 0.3 1.9 0.5 3.8 0.8 5.7z"/>
					</g>
					<g id="&lt;Group&gt;">
						<path id="&lt;Compound Path&gt;" class="s4" d="m2868.2 2965.3h-326.7c-13.3 0-24.6-9.7-26.8-22.8-15-90.7 18.1-171 93-226.2 92.8-68.2 229.5-82.7 325-34.4 62.3 31.6 94.1 98.8 79.3 167.4-14.7 67.6-68.5 113-137.2 115.8q-3.3 0.2-6.6 0.2zm-302.4-54.4h302.4q2.2 0 4.4-0.1c52.4-2.2 79-39.2 86.3-73.1 7.4-33.9-1.5-82.3-50.7-107.2-77-39-192.4-26.2-268.3 29.7-37.2 27.3-78.3 75-74.1 150.7z"/>
					</g>
					<g id="&lt;Group&gt;">
						<path id="&lt;Path&gt;" class="s4" d="m2850.1 2820.9c8.1 37.4 5.2 78.7-13.3 113.7-13.1 23.7-48 5.7-36.4-18.8 5.6-8.4 13.6-14.6 19.3-23.4 15.6-21 24.7-45.1 30.4-71.5z"/>
					</g>
					<g id="&lt;Group&gt;">
						<path id="&lt;Path&gt;" class="s4" d="m2685.1 2820.9c7.1 34.4 21.6 65.5 46 89.9 20.7 23.5-16.8 50.8-32.7 23.9-18.5-35.1-21.5-76.4-13.3-113.8z"/>
					</g>
				</g>
				<g id="&lt;Group&gt;">
					<path id="&lt;Path&gt;" class="s6" d="m1430.1 2448.8c0-45.3-61.4-82-137.2-82-75.7 0-137.1 36.7-137.1 82 0 45.2 61.4 82 137.1 82 75.8 0 137.2-36.8 137.2-82z"/>
				</g>
				<g id="&lt;Group&gt;">
					<path id="&lt;Path&gt;" class="s6" d="m2571.9 2448.8c0-45.3 61.4-82 137.2-82 75.7 0 137.1 36.7 137.1 82 0 45.2-61.4 82-137.1 82-75.8 0-137.2-36.8-137.2-82z"/>
				</g>
			</g>
		</g>
	</g>
</svg>