<svg version="1.2" xmlns="http://www.w3.org/2000/svg" viewBox="0 0 4000 4000" width="4000" height="4000">
	<title>2_-08</title>
	<style>
		.s0 { fill: #ff2d60 } 
		.s1 { fill: #000072 } 
		.s2 { fill: #fa9b27 } 
		.s3 { fill: #ffffff } 
		.s4 { fill: #ff699f } 
		.s5 { fill: #08b9ff } 
		.s6 { fill: #ff3e96 } 
		.s7 { fill: #ff3372 } 
	</style>
	<g id="Layer 1">
		<g id="&lt;Group&gt;">
			<g id="&lt;Group&gt;">
				<path id="&lt;Path&gt;" class="s0" d="m3340.8 1920.8c0 740.5-600.3 1340.8-1340.8 1340.8-740.5 0-1340.8-600.3-1340.8-1340.8 0-740.5 600.3-1340.8 1340.8-1340.8 740.5 0 1340.8 600.3 1340.8 1340.8z"/>
			</g>
			<g id="&lt;Group&gt;">
				<g id="&lt;Group&gt;" style="opacity: .3">
					<path id="&lt;Path&gt;" class="s1" d="m3312.5 3461.9c0 37.6-587.6 68.1-1312.5 68.1-724.9 0-1312.5-30.5-1312.5-68.1 0-37.7 587.6-68.2 1312.5-68.2 724.9 0 1312.5 30.5 1312.5 68.2z"/>
				</g>
				<g id="&lt;Group&gt;">
					<path id="&lt;Path&gt;" class="s1" d="m793.9 3423.3c100.5-5 201-8.1 301.5-11 50.3-1.1 100.6-2.6 150.8-3.6l150.8-2.7 150.7-1.7 75.4-0.8 75.4-0.3 150.7-0.5 150.8 0.3 150.8 0.4c50.2 0.1 100.5 0.8 150.7 1.2l150.8 1.3 150.7 2.2c201 3.2 402.1 7.4 603.1 15.2 5.7 0.3 10.2 5.1 9.9 10.8-0.2 5.5-4.6 9.8-9.9 10-201 7.8-402.1 12-603.1 15.2l-150.7 2.2-150.8 1.4c-50.2 0.3-100.5 1-150.7 1.1l-150.8 0.4-150.8 0.3-150.7-0.5-75.4-0.3-75.4-0.8-150.7-1.7-150.8-2.7c-50.2-1-100.5-2.5-150.8-3.6-100.5-2.9-201-5.9-301.5-11-5.7-0.3-10.1-5.2-9.8-10.9 0.3-5.4 4.6-9.6 9.8-9.9z"/>
				</g>
				<g id="&lt;Group&gt;">
					<g id="&lt;Group&gt;">
						<path id="&lt;Path&gt;" class="s2" d="m3071.3 2738.2c-16 179.9-197 270.1-202.1 272.5 0 0 0 0.1 0 0.1-95.1-8.8-154.5-56.2-191.2-117.8q0 0 0 0c-0.1-0.3-0.3-0.5-0.5-0.8-11.4-19.3-20.6-39.9-28-61.2-1.8-5.2-3.5-10.5-5.1-15.8-38.6-127.5-16.7-269.8-16.7-269.8 46.9-46.6 94.7-73.7 140.8-85.3 170.3-43.5 316.7 121.3 302.7 278.1z"/>
					</g>
					<g id="&lt;Group&gt;">
						<path id="&lt;Path&gt;" class="s3" d="m3071.3 2738.2c-16 179.9-197 270.1-202.1 272.5 6.1-6.2 324.3-339.7-100.7-550.6 170.3-43.5 316.7 121.3 302.7 278.1z"/>
					</g>
					<g id="&lt;Group&gt;">
						<path id="&lt;Path&gt;" class="s3" d="m2869.3 2718.9c-21.8 160.5-187.4 173.8-191.3 174.1q0 0 0 0c-14.5-24.2-25.5-50.7-33.6-77.8 137-20 224.9-96.3 224.9-96.3z"/>
					</g>
					<g id="&lt;Group&gt;" style="opacity: .3">
						<path id="&lt;Path&gt;" class="s1" d="m2919 2474.7c62.1 55.4 99.6 140.6 92.3 223.5-16 179.9-197 270.1-202.1 272.5 0 0 0 0.1 0 0.1-33.1-3-61.8-10.9-86.8-22.2 35.6 33.1 83.1 56.3 146.8 62.2 0 0 0-0.1 0-0.1 5.1-2.4 186.1-92.6 202-272.5 9.6-107.1-55.7-217.8-152.2-263.5z"/>
					</g>
					<g id="&lt;Group&gt;" style="opacity: .3">
						<path id="&lt;Path&gt;" class="s1" d="m2869.3 2718.9c-19.8 140.7-159.1 168.7-191.8 173.3-11.4-19.3-20.6-39.9-28-61.2 157.8-1.7 219.8-112.1 219.8-112.1z"/>
					</g>
					<g id="&lt;Group&gt;">
						<path id="&lt;Compound Path&gt;" class="s1" d="m2869.1 3028.9q-0.8 0-1.6-0.1c-78.1-7.1-140.2-39.7-184.8-96.8-109.7-140.5-74.5-379.3-72.9-389.4 0.6-3.8 2.4-7.4 5.1-10.1 95.9-95.2 209.3-122.4 311.1-74.6 104.7 49.2 173.4 167.7 163.3 281.9-16.9 190.5-204.3 283.5-212.3 287.3-2.4 1.2-5.1 1.8-7.9 1.8zm-224.3-475c-4.6 36.9-24.7 239.2 66.5 355.9 37.2 47.6 89.1 75.3 154.3 82.5 27.3-14.8 173.9-100.9 187.6-255.7 8.9-99.6-51.1-203-142.6-245.9-50.6-23.7-151.9-46.7-265.8 63.2z"/>
					</g>
					<g id="&lt;Group&gt;">
						<path id="&lt;Path&gt;" class="s1" d="m2674.5 2867.9l7.3-0.7c2.6-0.3 5.3-0.6 7.9-1 5.3-0.8 10.6-1.6 15.9-2.7 10.5-2.2 21-4.7 31-8.2 20.2-6.6 39.2-16.2 55.9-28.9 16.7-12.7 30.8-28.7 43.1-46.9 2.9-4.6 6.1-9.2 8.8-14.1 2.9-4.8 5.5-9.8 8.2-14.9 1.5-2.5 2.6-5.1 3.8-7.7l3.9-7.9c2.5-5.3 4.8-10.8 7.6-16.2v-0.1c0.4-0.7 1.3-1 2-0.7 0.5 0.3 0.8 0.8 0.8 1.3 0.5 6 0.7 12.2 0.6 18.3-0.5 6.1-0.5 12.3-1.7 18.4l-1.4 9.2c-0.5 3.1-1.5 6-2.2 9.1-1.5 6.1-3.6 12-5.8 17.9-9 23.7-24.4 45.5-43.8 63-19.5 17.3-42.7 30.3-67.2 38.4-12.2 3.9-24.7 6.8-37.4 8.4-6.3 0.8-12.7 1.4-19.1 1.6-3.2 0.1-6.4 0.2-9.7 0-3.3-0.1-6.2-0.2-10.2-0.6-9.7-1-16.6-9.6-15.6-19.2 0.9-8.4 7.5-14.8 15.6-15.6z"/>
					</g>
				</g>
				<g id="&lt;Group&gt;">
					<g id="&lt;Group&gt;">
						<path id="&lt;Path&gt;" class="s2" d="m2852.1 3428.2h-1704.2c-73.1-14-125.2-64.4-155.9-126.3-50.5-102-43.5-234.8 21.4-286.7 104.5-83.6 217.8-10.2 217.8-10.2 42.6-96.5 127.7-108.7 127.7-108.7-6.4-450 197.2-571.5 197.2-571.5h887.8c0 0 203.6 121.5 197.2 571.5 0 0 85.1 12.2 127.7 108.7 0 0 113.3-73.4 217.8 10.2 104.5 83.6 58.9 376.1-134.5 413z"/>
					</g>
					<g id="&lt;Group&gt;">
						<path id="&lt;Path&gt;" class="s3" d="m1349.6 3428.2h-201.7c-193.4-36.9-239-329.4-134.5-413 76.2-61 157.2-38.4 195.4-21.7l22.3 11.4 0.1 0.1c0 0 203.5 136.4 118.4 423.2z"/>
					</g>
					<g id="&lt;Group&gt;">
						<path id="&lt;Path&gt;" class="s3" d="m2277.9 3099.3c0 0-64.3 65.3-277.9 65.3-213.6 0-277.9-65.3-277.9-65.3 0 0-198.3-315.1-127.1-635.6 9.8-44.4 24.9-88.9 46.4-132.8 0 0 74.3 61.4 358.6 61.4 284.3 0 358.6-61.4 358.6-61.4 3.9 8 7.7 16.1 11.2 24.2 16.6 38.1 28.5 76.6 36.6 115 67.2 318.2-128.5 629.2-128.5 629.2z"/>
					</g>
					<g id="&lt;Group&gt;">
						<path id="&lt;Path&gt;" class="s3" d="m2650.4 3428.2h201.7c193.4-36.9 239-329.4 134.5-413-76.2-61-157.2-38.4-195.4-21.7l-22.3 11.4-0.1 0.1c0 0-203.5 136.4-118.4 423.2z"/>
					</g>
					<g id="&lt;Group&gt;" style="opacity: .3">
						<path id="&lt;Path&gt;" class="s1" d="m2630.2 3315.1c0 0-103.8 52-630.2 52-526.4 0-630.2-52-630.2-52-260.9 104.5-377.8-13.2-377.8-13.2 30.7 61.9 82.8 112.3 155.9 126.3h852.1 852.1c73.1-14 125.2-64.4 155.9-126.3 0 0-116.9 117.7-377.8 13.2z"/>
					</g>
					<g id="&lt;Group&gt;">
						<path id="&lt;Path&gt;" class="s1" d="m2777.1 3021.1l-3.1 1.9c-1.1 0.6-2.2 1.4-3.4 2.2-2.3 1.6-4.6 3.1-6.9 4.8-4.6 3.2-9 6.9-13.6 10.3-8.8 7.3-17.3 15-25.3 23.2-16 16.5-30.4 34.7-41.9 54.8-11.4 20-21.6 41.2-27.7 63.9-4.2 11.1-6.3 22.7-9.9 34.3-1.9 5.8-2.6 11.7-4.2 17.7-1.4 5.9-2.9 11.9-4.8 18l-0.1 0.3c-0.4 1.2-1.8 2-3.1 1.5-0.9-0.2-1.5-0.9-1.7-1.8-1.3-6.2-2.3-12.4-3.1-18.7-0.5-3.2-0.8-6.4-1.1-9.5l-0.5-4.8 0.1-4.8c0-6.3 0.2-12.7 0.6-19.1 0-6.5 1.2-12.8 2.3-19.1 1.2-6.3 2.2-12.7 3.9-19l5.5-18.5c1.7-6.4 4.5-12.2 6.8-18.3 2.5-6 4.8-12.1 8-17.8 11.3-23.5 26.5-45.1 44.2-64.3 4.3-5 9.2-9.4 13.8-14 4.8-4.5 9.8-8.7 14.9-12.9 5.1-4.1 10.3-8.1 15.9-11.8 2.7-1.9 5.5-3.7 8.4-5.4 1.4-0.9 2.9-1.8 4.5-2.6 1.5-0.9 2.9-1.7 4.9-2.7 8.9-4.5 19.8-0.9 24.3 8 4.3 8.4 1.3 18.6-6.6 23.5z"/>
					</g>
					<g id="&lt;Group&gt;">
						<path id="&lt;Path&gt;" class="s1" d="m1239.5 2988.9c2 1 3.4 1.8 4.9 2.7 1.6 0.8 3.1 1.7 4.5 2.6 2.9 1.7 5.7 3.5 8.4 5.4 5.6 3.7 10.8 7.7 15.9 11.8 5.1 4.2 10.1 8.4 14.9 12.9 4.6 4.6 9.5 9 13.8 14 17.7 19.2 32.9 40.8 44.2 64.3 3.2 5.7 5.5 11.8 8 17.8 2.3 6.1 5.1 11.9 6.8 18.3l5.5 18.5c1.7 6.3 2.7 12.7 3.9 19 1.1 6.3 2.3 12.6 2.3 19.1 0.4 6.4 0.6 12.8 0.6 19.1l0.1 4.8-0.5 4.8c-0.3 3.1-0.6 6.3-1.1 9.5-0.8 6.3-1.8 12.5-3.1 18.7-0.3 1.4-1.6 2.2-3 1.9-0.9-0.2-1.5-0.8-1.8-1.6l-0.1-0.3c-1.9-6.1-3.4-12.1-4.8-18-1.6-6-2.3-11.9-4.2-17.7-3.6-11.6-5.7-23.2-9.9-34.3-6.1-22.7-16.3-43.9-27.7-63.9-11.5-20.1-25.9-38.3-41.9-54.8-8-8.2-16.5-15.9-25.3-23.2-4.6-3.4-9-7.1-13.6-10.3-2.3-1.7-4.6-3.2-6.9-4.8-1.2-0.8-2.3-1.6-3.4-2.2l-3.1-1.9-1.1-0.7c-8.5-5.2-11.1-16.4-5.8-24.9 4.9-8 15.2-10.7 23.5-6.6z"/>
					</g>
					<g id="&lt;Group&gt;">
						<path id="&lt;Compound Path&gt;" class="s1" d="m2852.2 3446.3h-1704.4q-1.7 0-3.3-0.3c-94-18-166.4-94.5-193.7-204.7-24.6-99.4-4-196 51.3-240.3 87.9-70.3 182.5-38.8 221.1-20.7 36-66.4 90.8-90.3 117.5-98.3-2-443.4 197.5-567.7 206.1-572.8 2.8-1.6 6-2.5 9.3-2.5h887.8c3.3 0 6.5 0.9 9.3 2.5 8.6 5.1 208.1 129.4 206.1 572.8 26.7 8 81.5 31.9 117.5 98.3 38.6-18 133.2-49.6 221.1 20.7 55.3 44.3 76 140.9 51.3 240.3-27.3 110.2-99.7 186.7-193.7 204.7q-1.6 0.3-3.3 0.3zm-1702.6-36.2h1700.8c78.9-15.8 140-82 163.7-177.5 20.9-84.6 5-168.2-38.8-203.3-92.7-74.1-192.5-11.8-196.7-9.1-4.5 2.9-9.9 3.6-15 2.1-5.1-1.5-9.2-5.2-11.4-10-37.7-85.4-110.7-97.7-113.8-98.2-8.9-1.3-15.6-9.1-15.4-18.1 3.2-226.4-48.4-365.6-92.2-442.5-39.6-69.3-80-101.8-92.4-110.6h-876.8c-12.3 8.8-52.8 41.2-92.4 110.6-43.8 76.9-95.4 216.1-92.2 442.5 0.2 9.1-6.5 16.9-15.5 18.2-3 0.4-76 12.7-113.7 98.1-2.2 4.9-6.4 8.5-11.4 10-5.1 1.6-10.6 0.8-15-2.1-4.2-2.7-104-65-196.7 9.1-43.8 35.1-59.7 118.7-38.8 203.3 23.7 95.5 84.8 161.7 163.7 177.5z"/>
					</g>
					<g id="&lt;Group&gt;">
						<g id="&lt;Group&gt;">
							<path id="&lt;Path&gt;" class="s4" d="m1221.6 3226.8c12.1 39.9-5.6 80.6-39.6 91-34 10.3-71.4-13.6-83.5-53.5-12.1-39.9 5.6-80.7 39.5-91 34-10.4 71.4 13.6 83.6 53.5z"/>
						</g>
						<g id="&lt;Group&gt;">
							<path id="&lt;Path&gt;" class="s4" d="m1085.7 3156.2c6.2 20.6-2.9 41.7-20.5 47.1-17.6 5.3-37-7.1-43.2-27.7-6.3-20.7 2.8-41.8 20.4-47.1 17.6-5.4 37 7 43.3 27.7z"/>
						</g>
						<g id="&lt;Group&gt;">
							<path id="&lt;Path&gt;" class="s4" d="m1247.2 3114.4c6.3 20.6-2.9 41.7-20.5 47.1-17.6 5.3-36.9-7.1-43.2-27.7-6.3-20.7 2.9-41.8 20.5-47.1 17.6-5.4 36.9 7 43.2 27.7z"/>
						</g>
						<g id="&lt;Group&gt;">
							<path id="&lt;Path&gt;" class="s4" d="m1152.6 3093.5c6.3 20.6-2.9 41.7-20.5 47.1-17.6 5.3-36.9-7.1-43.2-27.7-6.3-20.7 2.9-41.8 20.5-47.1 17.6-5.4 36.9 7 43.2 27.7z"/>
						</g>
					</g>
					<g id="&lt;Group&gt;">
						<g id="&lt;Group&gt;">
							<path id="&lt;Path&gt;" class="s4" d="m2785 3221c-11.9 39.1 5.4 79 38.7 89.1 33.3 10.1 69.9-13.3 81.7-52.4 11.9-39-5.4-78.9-38.7-89-33.2-10.2-69.8 13.3-81.7 52.3z"/>
						</g>
						<g id="&lt;Group&gt;">
							<path id="&lt;Path&gt;" class="s4" d="m2918 3151.9c-6.1 20.2 2.8 40.9 20.1 46.1 17.2 5.3 36.1-6.9 42.3-27.1 6.1-20.2-2.8-40.9-20.1-46.1-17.2-5.3-36.1 6.9-42.3 27.1z"/>
						</g>
						<g id="&lt;Group&gt;">
							<path id="&lt;Path&gt;" class="s4" d="m2759.9 3111c-6.2 20.2 2.8 40.9 20 46.1 17.2 5.2 36.2-6.9 42.3-27.1 6.2-20.2-2.8-40.9-20-46.1-17.2-5.3-36.2 6.9-42.3 27.1z"/>
						</g>
						<g id="&lt;Group&gt;">
							<path id="&lt;Path&gt;" class="s4" d="m2852.5 3090.5c-6.2 20.3 2.8 40.9 20 46.2 17.2 5.2 36.2-7 42.3-27.2 6.2-20.2-2.8-40.8-20-46.1-17.2-5.2-36.2 6.9-42.3 27.1z"/>
						</g>
					</g>
				</g>
				<g id="&lt;Group&gt;">
					<g id="&lt;Group&gt;">
						<path id="&lt;Path&gt;" class="s2" d="m3142.1 1986.3c0.2 175.1-83 305.2-160.3 388.2-67 72.1-129.7 108.7-129.7 108.7-32-116.2-75.1-191.6-111-238.7-36.6-47.5-65.8-66-69.1-68.1-0.1-0.1-0.3-0.1-0.4-0.1 3.4-7.2 6.7-14.3 9.9-21.5 10.8-23.5 20.8-46.9 30.5-70 31.3-74.2 59.7-143.8 100.6-195 35.6-44.7 80.7-75.6 145.1-83.2 91-10.8 137.3 34.7 160.6 78.8 2.6 4.7 4.9 9.5 6.9 14.2 11.8 27.4 16.9 57 16.9 86.7z"/>
					</g>
					<g id="&lt;Group&gt;">
						<path id="&lt;Path&gt;" class="s3" d="m3142.1 1986.3c0.2 175.1-83 305.2-160.3 388.2-42.5-174.4-168.5-253.8-269.8-289.7 58.5-138.8 107.4-261.8 245.7-278.2 100.9-12 146.9 45.3 167.5 93 11.8 27.4 16.9 57 16.9 86.7z"/>
					</g>
					<g id="&lt;Group&gt;">
						<g id="&lt;Group&gt;">
							<path id="&lt;Path&gt;" class="s4" d="m2995.1 2059.4c-9.9 28.9-41.4 44.3-70.3 34.4-28.8-9.9-44.2-41.4-34.3-70.3 9.9-28.8 41.4-44.2 70.2-34.3 28.9 9.9 44.3 41.4 34.4 70.2z"/>
						</g>
						<g id="&lt;Group&gt;">
							<path id="&lt;Path&gt;" class="s4" d="m2932.9 1950.9c-6 17.5-23.1 27.6-38 22.5-15-5.2-22.2-23.5-16.2-41.1 6.1-17.6 23.1-27.6 38-22.5 15 5.1 22.2 23.5 16.2 41.1z"/>
						</g>
						<g id="&lt;Group&gt;">
							<path id="&lt;Path&gt;" class="s4" d="m3066.5 2003.2c-6.1 17.5-23.1 27.6-38 22.4-15-5.1-22.2-23.5-16.2-41 6-17.6 23-27.7 38-22.5 14.9 5.1 22.2 23.5 16.2 41.1z"/>
						</g>
						<g id="&lt;Group&gt;">
							<path id="&lt;Path&gt;" class="s4" d="m3011.1 1940.9c-6 17.6-23 27.7-38 22.5-15-5.1-22.2-23.5-16.2-41 6.1-17.6 23.1-27.7 38-22.5 15 5.1 22.2 23.5 16.2 41z"/>
						</g>
					</g>
					<g id="&lt;Group&gt;" style="opacity: .3">
						<path id="&lt;Path&gt;" class="s1" d="m3142.1 1986.3c0.2 175.1-83 305.2-160.3 388.2-67 72.1-129.7 108.7-129.7 108.7-32-116.2-75.1-191.6-111-238.7-36.6-47.5-65.8-66-69.1-68.1-0.1-0.1-0.3-0.1-0.4-0.1 3.4-7.2 6.7-14.3 9.9-21.5 34.9 13.5 77.3 35.2 119 69.7 71.7 59.4 180 39.3 226.3-41.5 50.2-87.7 96.1-196.8 91.5-297.6 2.6 4.7 4.9 9.5 6.9 14.2 11.8 27.4 16.9 57 16.9 86.7z"/>
					</g>
					<g id="&lt;Group&gt;">
						<path id="&lt;Compound Path&gt;" class="s1" d="m2852.1 2501.3c-2.3 0-4.6-0.4-6.8-1.3-5.2-2.1-9.1-6.6-10.6-12-63.2-229.5-171.1-295.5-172.2-296.1-8.1-4.8-11.3-15-7.2-23.4 15.9-33.4 30.1-67.3 43.9-100 56.9-135 110.6-262.6 256.3-279.9 86.8-10.3 153 26.6 186.3 103.9 12.2 28.2 18.4 59.7 18.4 93.8 0.2 174.5-81.1 304.6-149.3 383-73.6 84.6-146.5 127.7-149.6 129.5-2.8 1.7-6 2.5-9.2 2.5zm-157.6-331.1c32.2 25 113.3 102.7 168.2 284.4 26.1-18.1 74.1-55.2 121.7-110 92.8-107 139.7-227.6 139.6-358.3 0-29.1-5.2-55.8-15.4-79.5-27.2-63-77.3-90.7-148.8-82.2-124.8 14.8-172.3 127.5-227.2 258-12.1 28.6-24.5 58.1-38.1 87.6z"/>
					</g>
				</g>
				<g id="&lt;Group&gt;">
					<path id="&lt;Path&gt;" class="s5" d="m2802.8 2906.3c0.1 0.1 0.1 0.1 0.1 0.1-11.9 10.9-24.2 21.1-36.8 30.7-85.1 65.3-185.6 104.4-273.1 127.8-13.7 3.6-27 6.9-40 9.8-26.3 5.9-51 10.4-73 13.9-61.4 9.6-102.1 10.7-102.1 10.7l-31-174.8-71.9-404.8-19.4-109.1c31.9-5.2 62.3-11.3 91.2-18.3 44.6-10.7 85.5-23.5 123-37.2 104.1-38.1 181-84.5 231.2-120.4q0 0 0.1-0.2c47-33.7 70.5-58.3 70.5-58.3 0.1 0.1 0.3 0.1 0.4 0.2 30.8 14.7 56.3 34.1 77.5 55.9 44.3 45.6 69.5 102 83.9 149.7 17.1 56.6 18.7 101.2 18.7 101.2-29.1 20.1-58.5 36.9-83.3 49.8-37.4 19.6-64.5 30.2-64.5 30.2 60.9 115.1 97.1 334.1 98.5 342.9 0 0.1 0 0.1 0 0.1z"/>
				</g>
				<g id="&lt;Group&gt;">
					<path id="&lt;Path&gt;" class="s3" d="m2380 3088.6c-61.4 9.6-102.1 10.7-102.1 10.7l-122.3-688.7c31.9-5.2 62.3-11.3 91.2-18.3h0.1c0 0 45.4 185.7 133.1 696.3z"/>
				</g>
				<g id="&lt;Group&gt;">
					<path id="&lt;Path&gt;" class="s3" d="m2802.9 2906.4c-11.9 10.9-24.2 21.1-36.8 30.7-2.6-7.7-5.9-16.1-9.1-24-3.7-9-7.5-18-11.7-26.9-8.3-17.7-17.3-34.9-27.6-50.7-10.3-15.7-22.1-30.4-34.8-40-6.3-4.8-12.7-7.9-18.5-9.3-5.8-1.3-10.9-0.8-16.8 1.5-5.8 2.2-12.2 6.7-17.9 12.2-5.3 5.2-9.1 10.8-10.7 16.6-3.6 11.3 0.2 23.8 8.3 34.9 8.2 11 20.2 19.5 33 22 6.5 1.2 13.8 1 22-1.8 8.2-2.7 16.8-7.9 25.9-14.3 0.5-0.3 1.3-0.2 1.6 0.3 0.2 0.3 0.2 0.5 0.2 0.8-1 11.2-5.2 22.4-13.1 32.2-7.9 9.7-20.3 17.3-34.2 19.8-13.8 2.6-28.3 0.4-40.7-5-12.5-5.5-23.5-13.8-32.1-24.3-8.6-10.5-14.9-23.2-17.7-37.2-2.7-13.9-1.7-29.1 3.5-42.6 5-13.6 13.4-25 22.8-33.9 9-8.4 19.3-16.3 32.5-21.6 6.5-2.6 13.7-4.4 21.1-5.1 7.4-0.6 14.9-0.1 21.9 1.5 14.2 3.2 26.2 9.8 36 17.3 19.8 15 33.5 33.1 45.5 51.2 12 18.4 22 37.2 30.9 56.4 4.4 9.7 8.6 19.4 12.5 29.2q1.9 5 3.9 9.8c0 0.1 0 0.1 0 0.1 0.1 0.2 0.1 0.2 0.1 0.2z"/>
				</g>
				<g id="&lt;Group&gt;">
					<path id="&lt;Path&gt;" class="s3" d="m2550.9 2950.9c-3.1 11.4-9.5 22.5-18.8 30.5-9.2 8.1-21.2 12.3-32.1 12.3-11 0.1-20.9-3.2-29.1-8.6-0.4-0.3-0.6-0.9-0.3-1.4q0.2-0.3 0.6-0.4c9.3-2.7 17.5-5.7 23.8-9.9 6.4-4 10.5-8.8 13.3-13.9 5.3-10 6-22.8 2.9-34.4-3.1-11.6-9.5-21-19.1-24.7-4.8-2.1-10.7-2.7-17.1-1.8-6.9 0.9-13.4 2.8-18 5.5-4.9 2.8-8 6-10.3 10.7-2.2 4.6-3.6 10.6-3.7 17.6-0.5 13.9 3.1 29.9 8.2 45.5 5.1 15.6 11.9 31.2 19.4 46.4 6.7 13.7 14.4 27.7 22.4 40.6-13.7 3.6-27 6.9-40 9.8-6.3-10.8-12.2-21.6-17.8-32.8-8.2-16.6-15.6-33.7-21.5-51.8-5.7-18.1-10.6-37.2-10.1-59 0.3-10.7 2.4-22.5 7.9-33.8 2.8-5.7 6.5-11.1 11-15.7 4.5-4.7 9.6-8.6 15-11.6 10.8-6.2 21.8-8.9 32.5-10.4 11.1-1.5 23.5-1 35.4 3 11.9 3.9 22.9 11.5 30.9 20.9 8 9.5 13.2 20.8 15.6 32.3 2.5 11.6 2.1 23.6-1 35.1z"/>
				</g>
				<g id="&lt;Group&gt;">
					<path id="&lt;Path&gt;" class="s3" d="m2852.1 2483.2c-29.1 20.1-58.5 36.9-83.3 49.8-50.7-244.2-167.8-298.3-167.8-298.3q0 0 0.1-0.2c47-33.7 70.5-58.2 70.5-58.2 172 81.9 180.5 306.9 180.5 306.9z"/>
				</g>
				<g id="&lt;Group&gt;" style="opacity: .3">
					<path id="&lt;Path&gt;" class="s1" d="m2802.8 2906.3c0.1 0.1 0.1 0.1 0.1 0.1-11.9 10.9-24.2 21.1-36.8 30.7-85.1 65.3-185.6 104.4-273.1 127.8-13.7 3.6-27 6.9-40 9.8-26.3 5.9-51 10.4-73 13.9-61.4 9.6-102.1 10.7-102.1 10.7l-31-174.8c0 0 228.9 44.5 402.6-54.7 0 0-77.5 7.2-200.8-12.3-8.9-1.4-9.6-13.9-1-16.3 29.5-8.2 72.9-22.1 119.3-43.2 64.3-29.2 72.5-119 13.1-157.3q-1.6-1-3.3-2.1c-31.1-18.9-29-64.6 3.5-81 87.7-44.1 204-110.8 253.1-175.6 17.1 56.6 18.7 101.2 18.7 101.2-29.1 20.1-58.5 36.9-83.3 49.8-37.4 19.6-64.5 30.2-64.5 30.2 60.9 115.1 97.1 334.1 98.5 342.9 0 0.1 0 0.1 0 0.1z"/>
				</g>
				<g id="&lt;Group&gt;">
					<path id="&lt;Compound Path&gt;" class="s1" d="m2277.9 3117.4c-8.8 0-16.3-6.3-17.9-15l-122.2-688.6c-0.8-4.8 0.3-9.7 3.1-13.7 2.8-3.9 7.1-6.6 11.9-7.3 335.8-54 504-227.3 505.7-229 5.4-5.7 13.8-7.3 20.9-3.9 179.8 85.7 190.5 313 190.8 322.6 0.3 6.2-2.7 12.1-7.8 15.6-52.9 36.6-106.3 62.2-133.3 74.3 57.4 121.7 90.2 322.3 91.6 331.1 1 6.1-1.1 12.2-5.6 16.3-204.1 186.7-523.3 197.2-536.8 197.6q-0.2 0-0.4 0zm-101.3-692l116.3 654.9c65.1-4.5 321-31.6 490.4-180.7-7.7-44.1-42.2-228-95-327.9-2.4-4.5-2.8-9.9-1-14.7 1.8-4.9 5.5-8.7 10.3-10.6 0.7-0.3 68.2-27.2 135.7-72.3-4-41.7-28-205.5-158.3-275.8-40.4 37.8-203.8 175.4-498.4 227.1z"/>
				</g>
				<g id="&lt;Group&gt;">
					<path id="&lt;Path&gt;" class="s1" d="m2362.2 3091.7c-86.5-503.8-132.5-693.2-132.9-695.1l35.1-8.6c0.5 1.9 46.7 192.2 133.5 697.5z"/>
				</g>
				<g id="&lt;Group&gt;">
					<path id="&lt;Path&gt;" class="s1" d="m2751.1 2536.7c-47.8-230.5-156.7-285.1-157.8-285.6l15.3-32.9c5.1 2.4 126 60.8 177.9 311.2z"/>
				</g>
				<g id="&lt;Group&gt;">
					<path id="&lt;Path&gt;" class="s1" d="m2710.1 2580.4c-7.6 1.9-15.1 3.6-22.8 5-7.7 1.6-15.4 2.9-23.1 4.1q-11.6 1.8-23.4 3c-7.9 0.6-15.9 1.3-23.9 1.1-1.6-0.1-2.9-1.4-2.9-3 0.1-1 0.6-1.9 1.4-2.4h0.1c6.8-4.1 13.6-7.8 20.5-11.6 6.8-3.6 13.7-7.3 20.7-10.7 6.9-3.5 13.8-6.9 20.8-10.2 6.9-3.4 14-6.6 21-9.6 9.2-3.9 19.8 0.4 23.8 9.6 3.9 9.2-0.4 19.9-9.6 23.8-0.8 0.3-1.8 0.7-2.6 0.9z"/>
				</g>
				<g id="&lt;Group&gt;">
					<g id="&lt;Group&gt;">
						<path id="&lt;Path&gt;" class="s5" d="m1844.4 2410.6l-91.3 513.9-31 174.8c0 0-1-0.1-2.9-0.1-0.3 0-0.7-0.1-1.2-0.1-0.3 0-0.7 0-1.1 0-0.7 0-1.4-0.1-2.1-0.2h-0.3c-0.5 0-1 0-1.5-0.1-0.9 0-1.7 0-2.5 0-1.4-0.2-2.9-0.3-4.4-0.4-0.3 0-0.6 0-0.9 0-1.2-0.1-2.3-0.2-3.5-0.3q-1 0-2-0.1c-1.4-0.1-2.8-0.2-4.3-0.4-0.4 0-0.9 0-1.3 0q-3.4-0.4-7.1-0.6-3-0.4-6.4-0.7c-1.7-0.2-3.6-0.3-5.4-0.5q-2.1-0.2-4.3-0.4c-2.6-0.3-5.2-0.6-7.9-0.9q-5.2-0.7-10.8-1.4-5-0.6-10.2-1.3-3.3-0.5-6.6-0.9-3.7-0.5-7.5-1.1c-2.7-0.4-5.2-0.8-7.9-1.2q-4.2-0.7-8.4-1.3c-19.8-3.3-41.6-7.4-64.6-12.6q-10.7-2.4-21.8-5.2c-6-1.5-12-3-18.2-4.7-10.9-2.8-22-6-33.3-9.4-79.1-24.1-165.2-61.1-239.8-118.3-12.7-9.6-24.9-19.8-36.8-30.7 0 0 0 0 0.1-0.1 0-0.1 0-0.1 0-0.2 1.4-8.8 37.6-227.8 98.5-342.9 0 0 10.7-23.3 30.3-56.3 36.9-62.5 105.6-159.6 194.3-199.3 81.7 41.2 189.6 81.4 324.1 103z"/>
					</g>
					<g id="&lt;Group&gt;">
						<path id="&lt;Path&gt;" class="s3" d="m1620 3088.6c61.4 9.6 102.1 10.7 102.1 10.7l122.3-688.7c-31.9-5.2-62.3-11.3-91.2-18.3h-0.1c0 0-45.4 185.7-133.1 696.3z"/>
					</g>
					<g id="&lt;Group&gt;">
						<path id="&lt;Path&gt;" class="s3" d="m1427.8 2843.9c-2.8 14-9.1 26.7-17.7 37.2-8.6 10.5-19.6 18.8-32.1 24.3-12.4 5.4-26.9 7.6-40.7 5-13.9-2.5-26.3-10.1-34.2-19.8-7.9-9.8-12.1-21-13.1-32.2 0-0.3 0-0.5 0.2-0.8 0.3-0.5 1.1-0.6 1.6-0.3 9.1 6.4 17.7 11.6 25.9 14.3 8.2 2.8 15.5 3 22 1.8 12.8-2.5 24.8-11 33-22 8.1-11.1 11.9-23.6 8.3-34.9-1.6-5.8-5.4-11.4-10.7-16.6-5.7-5.5-12.1-10-17.9-12.2-5.9-2.3-11-2.8-16.8-1.5-5.8 1.4-12.2 4.5-18.5 9.3-12.7 9.6-24.5 24.3-34.8 40-10.3 15.8-19.3 33-27.6 50.7-4.2 8.9-8 17.9-11.7 26.9-3.2 7.9-6.5 16.3-9.1 24-12.6-9.6-24.9-19.8-36.8-30.7q0 0 0.1-0.3 2-4.8 3.9-9.8c3.9-9.8 8.1-19.5 12.5-29.2 8.9-19.2 18.9-38 30.9-56.4 12-18.1 25.7-36.2 45.5-51.2 9.8-7.5 21.8-14.1 36-17.3 7-1.6 14.5-2.1 21.9-1.5 7.4 0.7 14.6 2.5 21.1 5.1 13.2 5.3 23.5 13.2 32.5 21.6 9.4 8.9 17.8 20.3 22.8 33.9 5.2 13.5 6.2 28.7 3.5 42.6z"/>
					</g>
					<g id="&lt;Group&gt;">
						<path id="&lt;Path&gt;" class="s3" d="m1596.4 2931.1c0.5 21.8-4.4 40.9-10.1 59-5.9 18.1-13.3 35.2-21.5 51.8-5.6 11.2-11.5 22-17.8 32.8q-19.5-4.4-40-9.9c8-12.8 15.7-26.8 22.4-40.5 7.5-15.2 14.3-30.8 19.4-46.4 5.1-15.6 8.7-31.6 8.2-45.5-0.1-7-1.5-13-3.7-17.6-2.3-4.7-5.4-7.9-10.3-10.7-4.6-2.7-11.1-4.6-18-5.5-6.4-0.9-12.3-0.3-17.1 1.8-9.6 3.7-16 13.1-19.2 24.7-3 11.6-2.3 24.4 3 34.4 2.8 5.1 6.9 9.9 13.3 13.9 6.3 4.2 14.5 7.2 23.8 9.9q0.4 0.1 0.6 0.5c0.3 0.4 0.1 1-0.3 1.3-8.2 5.4-18.1 8.7-29.1 8.7-10.9-0.1-22.9-4.3-32.1-12.4-9.3-8-15.7-19.1-18.8-30.5-3.1-11.5-3.5-23.5-1-35.1 2.4-11.5 7.6-22.8 15.6-32.3 8-9.4 19-17 30.9-20.9 11.9-4 24.3-4.5 35.4-3 10.7 1.5 21.7 4.2 32.5 10.4 5.4 3 10.5 6.9 15 11.6 4.5 4.6 8.2 10 11 15.7 5.5 11.3 7.6 23.1 7.9 33.8z"/>
					</g>
					<g id="&lt;Group&gt;" style="opacity: .3">
						<path id="&lt;Path&gt;" class="s1" d="m1753.1 2924.5l-31 174.8c0 0-1-0.1-2.9-0.1-0.3-0.1-0.7-0.1-1.2-0.1-0.3 0-0.7 0-1.1 0-0.6 0-1.4-0.1-2.1-0.2h-0.3c-0.5 0-1 0-1.5-0.1-0.9 0-1.7 0-2.5-0.1-1.4-0.1-2.9-0.2-4.4-0.3-0.3 0-0.6 0-0.9 0q-1.7-0.2-3.5-0.3-1 0-2-0.1c-1.4-0.1-2.8-0.3-4.3-0.4-0.4 0-0.9 0-1.3 0q-3.4-0.4-7.1-0.6-3-0.4-6.4-0.7c-1.7-0.2-3.6-0.3-5.4-0.5q-2.1-0.2-4.3-0.4c-2.6-0.3-5.2-0.6-7.9-0.9q-5.2-0.7-10.8-1.4-5-0.6-10.2-1.3-3.3-0.5-6.6-0.9-3.7-0.5-7.5-1.1c-2.7-0.4-5.2-0.8-7.9-1.2q-4.2-0.7-8.4-1.3c-19.8-3.3-41.6-7.4-64.6-12.6q-10.7-2.4-21.8-5.2-9-2.2-18.2-4.6c-10.9-2.9-22-6.1-33.3-9.5-79.1-24.1-165.2-61.1-239.8-118.3-12.6-9.6-24.9-19.8-36.8-30.7 0 0 0 0 0.1-0.2 0 0 0 0 0-0.1 1.4-8.8 37.6-227.8 98.5-342.9 0 0 10.7-23.3 30.3-56.3 32 18.8 64.5 36 93.7 50.7 32.6 16.3 34.5 62 3.5 81q-1.7 1-3.3 2.1c-59.4 38.3-51.2 128.1 13.1 157.3 46.4 21.1 89.9 35 119.3 43.2 8.7 2.4 7.9 14.9-1 16.3-123.3 19.5-200.8 12.3-200.8 12.3 173.7 99.2 402.6 54.7 402.6 54.7z"/>
					</g>
					<g id="&lt;Group&gt;">
						<path id="&lt;Compound Path&gt;" class="s1" d="m1722.1 3117.4q-0.2 0-0.4 0c-13.5-0.4-332.7-10.9-536.8-197.6-4.5-4.1-6.6-10.2-5.6-16.3 1.5-9.3 37.5-229.4 100.2-348.3 6.2-13.5 95.3-202.3 233.4-264.1 4.9-2.2 10.7-2.1 15.5 0.4 96.9 48.8 204.2 82.8 318.8 101.3 4.8 0.7 9.1 3.4 11.9 7.3 2.8 4 3.9 8.9 3.1 13.7l-122.2 688.6c-1.6 8.7-9.1 15-17.9 15zm-505.4-217.8c169.4 149.1 425.3 176.2 490.4 180.7l116.3-654.9c-108.5-19-210.4-51.9-303.3-97.7-123.6 61-207.1 241.2-207.9 243.1q-0.2 0.4-0.5 0.9c-52.8 99.9-87.3 283.8-95 327.9z"/>
					</g>
					<g id="&lt;Group&gt;">
						<path id="&lt;Path&gt;" class="s1" d="m1637.8 3091.7l-35.7-6.2c86.8-505.3 133-695.6 133.5-697.5l35.2 8.6c-0.5 1.9-46.5 191.3-133 695.1z"/>
					</g>
				</g>
				<g id="&lt;Group&gt;" style="opacity: .3">
					<path id="&lt;Path&gt;" class="s1" d="m2749.5 2232.3c-2.7 4.1-5.6 8.2-8.4 12.2-71.9 99.5-187.7 176.8-334.7 225.6-70.4 23.3-148.1 40.1-231.4 49.6-52.8 6.1-108 9.2-165 9.2-155.2 0-295.9-23-415-65.2 9.8-44.4 24.9-88.9 46.4-132.8 0 0 74.3 61.4 358.6 61.4 284.3 0 358.6-61.4 358.6-61.4 3.9 8 7.7 16.1 11.2 24.2 104.1-38.1 181-84.5 231.2-120.4q0 0 0.1-0.2c47-33.7 70.5-58.3 70.5-58.3 14.6-30.6 27.8-61.4 40.4-91.4 31.3-74.2 59.7-143.8 100.6-195 26.6 130.2 1.9 246.2-63.1 342.5z"/>
				</g>
				<g id="&lt;Group&gt;">
					<g id="&lt;Group&gt;">
						<path id="&lt;Path&gt;" class="s3" d="m1366.8 1399.5c0 0-224.2 61.5-336.2 25.5 0 0-39.7 99.2-16.4 181.2 0 0 232.5-0.8 339.8-72.2z"/>
					</g>
					<g id="&lt;Group&gt;" style="opacity: .3">
						<path id="&lt;Path&gt;" class="s1" d="m1053.3 1431.8q0.1-0.5 0.2-1c-8.1-1.5-15.7-3.4-22.9-5.8 0 0-39.7 99.2-16.4 181.2 0 0 232.5-0.8 339.8-72.2l3.4-35.2c-59.6 26.6-137.9 39.7-200.1 46.1-63.7 6.7-116.3-50.1-104-113.1z"/>
					</g>
					<g id="&lt;Group&gt;">
						<path id="&lt;Compound Path&gt;" class="s1" d="m1014.2 1624.3c-8.1 0-15.2-5.4-17.4-13.1-24.7-87 15.2-188.6 17-192.9 3.5-8.8 13.2-13.4 22.3-10.5 105.6 33.9 323.8-25.1 325.9-25.7 5.8-1.6 11.9-0.3 16.5 3.6 4.5 3.8 6.9 9.6 6.3 15.5l-12.8 134.5c-0.5 5.5-3.4 10.4-7.9 13.4-110.6 73.5-340.1 75.2-349.8 75.2q-0.1 0-0.1 0zm27.9-177.4c-8.6 27.3-24 87.1-13.7 140.9 50.1-1.6 219.5-10.7 308.5-64.3l9.5-100.1c-59.3 14.2-208.4 45.2-304.3 23.5z"/>
					</g>
				</g>
				<g id="&lt;Group&gt;">
					<g id="&lt;Group&gt;">
						<path id="&lt;Path&gt;" class="s3" d="m1295.3 1488.4c0 0-154 174.2-267.4 205.6 0 0 21.1 104.6 85.5 160.5 0 0 194.1-128 244.8-246.5z"/>
					</g>
					<g id="&lt;Group&gt;" style="opacity: .3">
						<path id="&lt;Path&gt;" class="s1" d="m1335.9 1565.6c-40 64.4-113 127.9-165.5 168.7-37.8 29.5-93 17.2-115-25.5-3.6-7-6.9-14-9.8-20.8-6 2.3-11.9 4.4-17.7 5.9 0 0 21.1 104.7 85.5 160.6 0 0 194.1-128 244.8-246.5z"/>
					</g>
					<g id="&lt;Group&gt;">
						<path id="&lt;Compound Path&gt;" class="s1" d="m1113.4 1872.6c-4.2 0-8.4-1.5-11.8-4.5-68.3-59.2-90.5-166.1-91.5-170.6-1.8-9.3 3.8-18.5 13-21 107-29.5 257.1-198.4 258.6-200.1 3.9-4.4 9.8-6.6 15.7-6 5.9 0.8 11.1 4.3 13.9 9.6l62.9 119.5c2.6 4.9 2.8 10.6 0.7 15.6-52.3 122.1-243.4 249.1-251.5 254.5-3 2-6.5 3-10 3zm-63.9-166.7c7.8 27.6 27.6 86 65.8 125.4 41-28.8 177.7-129.2 222.8-222.8l-46.9-88.9c-41.8 44.3-149.5 152-241.7 186.3z"/>
					</g>
				</g>
				<g id="&lt;Group&gt;">
					<g id="&lt;Group&gt;">
						<g id="&lt;Group&gt;">
							<g id="&lt;Group&gt;">
								<path id="&lt;Path&gt;" class="s2" d="m1273.2 1562.4c0 0-96.7-315.4 27.8-599.1 23.7-54 81.2-85.2 139-74.2 77.1 14.7 191.3 56.6 309.6 171.6 0 0-329.5 83.2-476.4 501.7z"/>
							</g>
							<g id="&lt;Group&gt;" style="opacity: .7">
								<path id="&lt;Path&gt;" class="s3" d="m1328.4 983.7c19.5-55.5 74.5-91 133-84.4 13.6 1.5 28.4 3.8 44.2 7.1-23.9-8-46-13.5-65.6-17.3-57.8-11-115.3 20.2-139 74.2-124.5 283.7-27.8 599.1-27.8 599.1 11.9-34.1 25.1-65.8 39.2-95.6-25.8-116-47.6-302.3 16-483.1z"/>
							</g>
							<g id="&lt;Group&gt;">
								<path id="&lt;Compound Path&gt;" class="s1" d="m1273.2 1580.5q-0.2 0-0.4 0c-7.8-0.2-14.6-5.4-16.9-12.8-4-13.2-97.3-325.1 28.5-611.7 27.5-62.5 92.9-97.3 159-84.6 78 14.8 196.6 57.5 318.8 176.3 4.8 4.6 6.6 11.3 4.9 17.7-1.7 6.3-6.7 11.2-13 12.8-0.8 0.2-81.4 21.3-178.4 92.1-89.3 65.1-211.4 187.1-285.4 398.1-2.6 7.2-9.4 12.1-17.1 12.1zm143.3-675.5c-42.2 0-81.1 25-98.9 65.5-89.9 204.7-61.1 429.2-40.4 531 78.2-187.2 192.8-299.2 278.7-361.6 66.6-48.3 125.2-74.4 159-86.9-107.8-96.9-209.8-133-278.3-146.1-6.7-1.3-13.5-1.9-20.1-1.9z"/>
							</g>
						</g>
						<g id="&lt;Group&gt;">
							<g id="&lt;Group&gt;">
								<path id="&lt;Path&gt;" class="s4" d="m1345.9 1459.3c0 0-67.2-219.1 19.4-416.3 16.4-37.4 56.4-59.1 96.5-51.5 53.6 10.2 133 39.3 215.2 119.2 0 0-229 57.8-331.1 348.6z"/>
							</g>
							<g id="&lt;Group&gt;" style="opacity: .3">
								<path id="&lt;Path&gt;" class="s1" d="m1401.5 1110.3c16.4-37.5 56.4-59.2 96.5-51.5 38.6 7.3 90.4 24.4 147.1 63.2 19.8-8.2 31.9-11.3 31.9-11.3-82.2-79.9-161.6-109-215.2-119.2-40.1-7.6-80.1 14.1-96.5 51.5-86.6 197.2-19.4 416.3-19.4 416.3 5-14.2 10.3-27.8 15.9-40.9-9-81.8-8.5-198.4 39.7-308.1z"/>
							</g>
							<g id="&lt;Group&gt;">
								<path id="&lt;Compound Path&gt;" class="s1" d="m1345.9 1472.2q-0.1 0-0.2 0c-5.6-0.1-10.5-3.8-12.1-9.1-2.8-9.1-67.7-226 19.8-425.3 19.1-43.5 64.7-67.8 110.9-59 54.2 10.4 136.7 40 221.7 122.7 3.3 3.2 4.7 8 3.5 12.6-1.3 4.5-4.8 8-9.4 9.2-2.2 0.5-223.6 60-322 340.3-1.8 5.2-6.7 8.6-12.2 8.6zm99.6-469.3c-29.2 0-56.1 17.3-68.4 45.3-62.1 141.4-42.6 296.3-28.3 367.5 89.5-214.2 245.8-289.4 303.3-310.5-74.7-67-145.3-91.9-192.7-101q-7-1.3-13.9-1.3z"/>
							</g>
						</g>
					</g>
					<g id="&lt;Group&gt;">
						<g id="&lt;Group&gt;">
							<g id="&lt;Group&gt;">
								<path id="&lt;Path&gt;" class="s2" d="m2726.8 1562.4c0 0 96.7-315.4-27.8-599.1-23.7-54-81.2-85.2-139-74.2-77.1 14.7-191.3 56.6-309.6 171.6 0 0 329.5 83.2 476.4 501.7z"/>
							</g>
							<g id="&lt;Group&gt;" style="opacity: .7">
								<path id="&lt;Path&gt;" class="s3" d="m2671.6 983.7c-19.5-55.5-74.5-91-133-84.4-13.6 1.5-28.4 3.8-44.2 7.1 23.9-8 46-13.5 65.6-17.3 57.8-11 115.3 20.2 139 74.2 124.5 283.7 27.8 599.1 27.8 599.1-11.9-34.1-25.1-65.8-39.2-95.6 25.8-116 47.6-302.3-16-483.1z"/>
							</g>
							<g id="&lt;Group&gt;">
								<path id="&lt;Compound Path&gt;" class="s1" d="m2726.8 1580.5c-7.7 0-14.5-4.9-17.1-12.1-74-211-196.1-333-285.4-398.1-97-70.8-177.6-91.9-178.4-92.1-6.3-1.6-11.3-6.5-13-12.8-1.7-6.4 0.2-13.1 4.9-17.7 122.2-118.8 240.8-161.5 318.8-176.3 66.2-12.7 131.5 22.1 159 84.6 125.8 286.6 32.5 598.5 28.5 611.7-2.3 7.4-9.1 12.6-16.9 12.8q-0.2 0-0.4 0zm-441.7-527.5c33.8 12.5 92.4 38.6 159 86.9 85.9 62.4 200.5 174.4 278.7 361.6 20.7-101.8 49.5-326.3-40.4-531-20.6-46.9-69.5-73-119-63.6-68.5 13.1-170.5 49.2-278.3 146.1z"/>
							</g>
						</g>
						<g id="&lt;Group&gt;">
							<g id="&lt;Group&gt;">
								<path id="&lt;Path&gt;" class="s4" d="m2654.1 1459.3c0 0 67.2-219.1-19.4-416.3-16.4-37.4-56.4-59.1-96.5-51.5-53.6 10.2-133 39.3-215.2 119.2 0 0 229 57.8 331.1 348.6z"/>
							</g>
							<g id="&lt;Group&gt;" style="opacity: .3">
								<path id="&lt;Path&gt;" class="s1" d="m2598.5 1110.3c-16.4-37.5-56.4-59.2-96.5-51.5-38.6 7.3-90.4 24.4-147.1 63.2-19.8-8.2-31.9-11.3-31.9-11.3 82.2-79.9 161.6-109 215.2-119.2 40.1-7.6 80.1 14.1 96.5 51.5 86.6 197.2 19.4 416.3 19.4 416.3-5-14.2-10.3-27.8-15.9-40.9 9-81.8 8.5-198.4-39.7-308.1z"/>
							</g>
							<g id="&lt;Group&gt;">
								<path id="&lt;Compound Path&gt;" class="s1" d="m2654.1 1472.2c-5.5 0-10.4-3.4-12.2-8.6-98.4-280.3-319.8-339.8-322.1-340.3-4.5-1.2-8.1-4.7-9.3-9.2-1.2-4.6 0.2-9.4 3.5-12.6 85-82.7 167.5-112.3 221.7-122.7 46.2-8.8 91.8 15.5 110.9 59 87.5 199.3 22.6 416.2 19.8 425.3-1.6 5.3-6.5 9-12.1 9.1q-0.1 0-0.2 0zm-306.2-367c57.5 21.1 213.8 96.3 303.3 310.5 14.3-71.2 33.8-226.1-28.3-367.5-14.2-32.4-48.1-50.5-82.3-44-47.4 9.1-118 34-192.7 101z"/>
							</g>
						</g>
					</g>
					<g id="&lt;Group&gt;">
						<g id="&lt;Group&gt;">
							<path id="&lt;Path&gt;" class="s2" d="m2000 2463.9c-562 0-934.3-300.9-776.8-729.2q6-16.4 13-32.9c5.2-12 8.8-24.6 11.2-37.4 19.7-108.4 147.5-639 752.6-639 605.1 0 732.9 530.6 752.6 639 2.4 12.8 6 25.4 11.2 37.4 189.4 445.8-187.5 762.1-763.8 762.1z"/>
						</g>
						<g id="&lt;Group&gt;">
							<path id="&lt;Path&gt;" class="s3" d="m2776.8 1734.7c0 0-87.4-7.7-157.3 119.7-54.9 99.9-219.5 100.5-308.3 39.2-88.6-61.4-198.5-95-311-95-112.4 0-222.8 33.6-311.4 95-88.8 61.3-253.4 60.7-308.3-39.2-69.9-127.4-157.3-119.7-157.3-119.7-157.5 428.3 214.8 729.2 776.8 729.2 562 0 934.3-300.9 776.8-729.2z"/>
						</g>
						<g id="&lt;Group&gt;" style="opacity: .3">
							<path id="&lt;Path&gt;" class="s1" d="m2780.5 1745c66.3 362.7-279.3 609.4-780.5 609.4-500.9 0-846.5-246.5-780.6-608.8-147.3 422.5 223.4 718.3 780.6 718.3 557.5 0 928.3-296 780.5-718.9z"/>
						</g>
						<g id="&lt;Group&gt;" style="opacity: .3">
							<path id="&lt;Path&gt;" class="s1" d="m2311.8 1916c0 0-31 73-121.6 67.1-35.1-2.2-60.4-11.1-78.6-22-7-4.2-7.5-14.2-1.1-19 37.1-27.5 59-65.7 48.4-99.4-19.3-60.9-158.9-57.5-158.9-57.5 0 0-139.6-3.4-158.9 57.5-10.7 33.8 11.4 72.1 48.6 99.6 6.5 4.8 5.9 14.8-1.1 19-18.2 10.8-43.4 19.6-78.3 21.8-90.6 5.9-121.6-67.1-121.6-67.1 0 0-39.6 74.2 21.2 136 5.2 5.2 9.3 11.5 11.6 18.4 17.1 49.8 98.1 254.4 278.7 254.4 180.7 0 261.7-204.6 278.7-254.4 2.4-6.9 6.5-13.2 11.7-18.4 60.8-61.8 21.2-136 21.2-136z"/>
						</g>
						<g id="&lt;Group&gt;" style="opacity: .7">
							<path id="&lt;Path&gt;" class="s3" d="m2763.8 1701.8c-5.2-12-8.8-24.6-11.2-37.4-19.7-108.4-147.5-639-752.6-639-605.1 0-732.9 530.6-752.6 639-2.4 12.8-6 25.4-11.2 37.4q-7 16.5-13 32.9c-28.2 76.7-39.3 149.2-35.5 216.8 2.9-52.5 14.4-107.6 35.5-165.1q6-16.3 13-32.9c5.2-12 8.8-24.6 11.2-37.4 16.5-90.6 108.6-476.3 491.9-600.3 0 0.1 0 0.2 0 0.3 3.2 18.4 46.7 26.2 97.2 17.4 50.4-8.8 88.7-31 85.5-49.4-0.2-1.3-0.7-2.6-1.4-3.8 25.5-2.1 52-3.2 79.4-3.2 605.1 0 732.9 530.6 752.6 639 2.4 12.8 6 25.4 11.2 37.4 29.4 69.2 45.1 135.3 48.6 197.6 4.3-77-10.9-160.6-48.6-249.3z"/>
						</g>
						<g id="&lt;Group&gt;">
							<path id="&lt;Path&gt;" class="s1" d="m1743.8 1759.8l-9.2-9c-3.3-3.4-6.9-6.6-10.4-9.9-7.1-6.4-14.4-12.8-22-18.8-15.2-11.9-31.1-23-48.4-31.9-8.6-4.2-17.4-8.4-26.6-11.6-9.3-3.1-18.7-6.2-28.4-8.1-19.5-4.3-39.9-5.5-61.1-4.8h-0.4c-5.7 0.2-10.6-4.4-10.7-10.1-0.2-4.4 2.4-8.3 6.3-10 21.2-9.1 44.6-14.6 68.7-15.8 24-1.2 48.6 1.9 72.1 8.7 23.5 6.7 46 17 66.4 30.2 10.2 6.7 20 14 29.1 22 4.6 4 9 8.3 13.3 12.7 2.1 2.3 4.2 4.6 6.3 7 1 1.1 2.1 2.4 3.1 3.7l3.5 4.4c11.2 14.3 8.7 35-5.6 46.2-13.2 10.4-31.8 9.1-43.4-2.4z"/>
						</g>
						<g id="&lt;Group&gt;">
							<path id="&lt;Path&gt;" class="s1" d="m2204.6 1718.5l3.5-4.4c1-1.3 2.1-2.6 3.1-3.7 2.1-2.4 4.2-4.7 6.3-7 4.3-4.4 8.7-8.7 13.3-12.7 9.1-8 18.9-15.3 29.1-22 20.4-13.2 42.9-23.5 66.4-30.2 23.5-6.8 48.1-9.9 72.1-8.7 24.1 1.2 47.5 6.7 68.7 15.8 5.3 2.3 7.8 8.5 5.5 13.8-1.8 4-5.8 6.4-9.9 6.3h-0.4c-21.2-0.7-41.6 0.5-61.1 4.8-9.7 1.9-19.1 5-28.4 8.1-9.2 3.2-18 7.4-26.6 11.6-17.3 8.9-33.2 20-48.4 31.9-7.6 6-14.9 12.4-22 18.8-3.5 3.3-7.1 6.5-10.4 9.9l-9.2 9-2.6 2.5c-12.9 12.8-33.8 12.6-46.5-0.4-11.8-11.9-12.6-30.6-2.5-43.4z"/>
						</g>
						<g id="&lt;Group&gt;">
							<path id="&lt;Path&gt;" class="s1" d="m2000 1959c85.9 0 168.9-71.9 150.6-129.7-18.3-57.8-150.6-54.6-150.6-54.6 0 0-132.3-3.2-150.6 54.6-18.3 57.8 64.7 129.7 150.6 129.7z"/>
						</g>
						<g id="&lt;Group&gt;">
							<path id="&lt;Path&gt;" class="s1" d="m2019.2 1955.9c-1.4 3.3-2.3 5.2-3.4 7.7q-1.7 3.5-3.4 6.8-3.5 6.6-7.5 12.9c-5.4 8.3-11.3 16.3-17.9 23.8-13.1 15-28.4 28.4-46 38.6-17.3 10.4-36.7 17.7-56.5 21.4-19.8 3.7-39.9 4.4-59.3 2-19.4-2.4-38.2-6.6-56.7-13.7-18.3-7.2-36-17.6-50.7-31.7-14.7-13.8-26.3-31.4-31.4-50.7-5.1-19.1-5.3-39.2 1.8-57.1 0.2-0.4 0.6-0.6 1-0.4 0.3 0.1 0.4 0.3 0.5 0.5v0.1c5.1 17.8 11.5 33.7 19.5 47.8 8.1 14 17.5 26.4 29.7 36.1 12.1 9.7 26.4 16.7 41.8 21.3 15.2 4.7 31.7 7.5 47.9 8.5 16.2 0.9 32.2-0.2 47.4-3.7 7.6-1.7 15-4 22.1-7 7.2-2.8 14.1-6.3 20.7-10.4 13.2-8.1 25.2-18.3 35.7-30.1 5.3-5.9 10.3-12.2 14.7-18.8 2.2-3.3 4.5-6.6 6.4-9.9q1.6-2.6 2.9-5.1c0.9-1.5 1.9-3.6 2.3-4.5l0.7-1.3c5.1-10.2 17.5-14.4 27.7-9.3 9.7 4.8 13.9 16.3 10 26.2z"/>
						</g>
						<g id="&lt;Group&gt;">
							<path id="&lt;Path&gt;" class="s1" d="m2019.2 1940.3c0.4 0.9 1.4 3 2.3 4.5q1.3 2.5 2.9 5.1c1.9 3.3 4.2 6.6 6.4 9.9 4.4 6.6 9.4 12.9 14.7 18.8 10.5 11.8 22.5 22 35.7 30.1 6.6 4.1 13.5 7.6 20.7 10.4 7.1 3 14.5 5.3 22.1 7 15.2 3.5 31.2 4.6 47.4 3.7 16.2-1 32.7-3.8 47.9-8.5 15.4-4.6 29.7-11.6 41.8-21.3 12.2-9.7 21.6-22.1 29.7-36.1 8-14.1 14.4-30 19.5-47.8v-0.1c0.1-0.4 0.6-0.6 1-0.5 0.2 0 0.4 0.2 0.5 0.4 7.1 17.9 6.9 38 1.8 57.1-5.1 19.3-16.7 36.9-31.4 50.7-14.7 14.1-32.4 24.5-50.7 31.7-18.5 7.1-37.3 11.3-56.7 13.7-19.4 2.4-39.5 1.7-59.3-2-19.8-3.7-39.2-11-56.5-21.4-17.6-10.2-32.9-23.6-46-38.6-6.6-7.5-12.5-15.5-17.9-23.8q-4-6.3-7.5-12.9-1.7-3.3-3.4-6.8c-1.1-2.5-2-4.4-3.4-7.7-4.2-10.6 0.9-22.6 11.5-26.9 10-4 21.4 0.4 26.2 9.9z"/>
						</g>
						<g id="&lt;Group&gt;">
							<path id="&lt;Path&gt;" class="s1" d="m2233.8 2035.1c0 0-50.5 272.5-233.8 272.5-79.5 0-134.1-51.3-170.4-109.5-47.3-75.7-63.4-163-63.4-163 0 0 142.6 62.6 233.8-76 91.2 138.6 233.8 76 233.8 76z"/>
						</g>
						<g id="&lt;Group&gt;">
							<path id="&lt;Path&gt;" class="s6" d="m2000 2104.7c-137.8 0-170.4 93.4-170.4 93.4 36.3 58.2 90.9 109.5 170.4 109.5 79.5 0 134.1-51.3 170.4-109.5 0 0-32.6-93.4-170.4-93.4z"/>
						</g>
						<g id="&lt;Group&gt;" style="opacity: .3">
							<path id="&lt;Path&gt;" class="s1" d="m2000 2225.4c-61 0-109.2-26.3-147-63.7-17.4 19.5-23.4 36.4-23.4 36.4 36.3 58.2 90.9 109.5 170.4 109.5 79.5 0 134.1-51.3 170.4-109.5 0 0-6-16.9-23.4-36.4-37.8 37.4-86 63.7-147 63.7z"/>
						</g>
						<g id="&lt;Group&gt;">
							<path id="&lt;Compound Path&gt;" class="s1" d="m2000 2325.7c-196 0-249.5-275.5-251.7-287.3-1.2-6.6 1.3-13.3 6.6-17.5 5.2-4.1 12.3-5.1 18.5-2.4 5.2 2.3 130 54.4 211.5-69.4 3.3-5.1 9-8.1 15.1-8.1 6.1 0 11.8 3 15.1 8.1 81.5 123.8 206.3 71.7 211.6 69.4 6.1-2.6 13.2-1.7 18.4 2.5 5.3 4.2 7.8 10.9 6.6 17.4-2.2 11.8-55.7 287.3-251.7 287.3zm-208.9-264.3c18.8 67.7 77.3 228.1 208.9 228.1 131.9 0 190.2-160.5 208.9-228.1-47.7 10.3-139 15.2-208.9-71.6-69.9 86.8-161.1 81.9-208.9 71.6z"/>
						</g>
						<g id="&lt;Group&gt;">
							<path id="&lt;Path&gt;" class="s3" d="m2058.3 1811.8c0 7.3-26 13.2-58.1 13.2-32 0-58-5.9-58-13.2 0-7.3 26-13.2 58-13.2 32.1 0 58.1 5.9 58.1 13.2z"/>
						</g>
						<g id="&lt;Group&gt;">
							<path id="&lt;Path&gt;" class="s3" d="m1828 1593.1c-14.3 20.1-53.6 16.7-87.7-7.6-34.2-24.3-50.3-60.3-36-80.4 14.3-20.1 53.5-16.7 87.7 7.6 34.2 24.3 50.3 60.3 36 80.4z"/>
						</g>
						<g id="&lt;Group&gt;">
							<path id="&lt;Path&gt;" class="s3" d="m2172 1593.1c14.3 20.1 53.6 16.7 87.7-7.6 34.2-24.3 50.3-60.3 36-80.4-14.3-20.1-48.4-16.7-82.5 7.6-34.2 24.3-55.5 60.3-41.2 80.4z"/>
						</g>
						<g id="&lt;Group&gt;">
							<path id="&lt;Compound Path&gt;" class="s1" d="m2000 2482c-346.4 0-629.3-115.1-756.9-307.9-90.5-136.9-98.6-302.6-23.5-479.4 4.5-10.5 7.8-21.8 9.9-33.5 20-109.2 150.8-653.9 770.5-653.9 619.7 0 750.5 544.7 770.5 653.9 2.1 11.7 5.4 23 9.9 33.5 75.1 176.8 67 342.5-23.5 479.4-127.6 192.8-410.5 307.9-756.9 307.9zm0-1438.5c-591 0-715.8 519.9-734.8 624.2-2.7 14.3-6.8 28.2-12.3 41.1-70.1 165.1-63.1 319.1 20.4 445.3 120.9 182.7 392.5 291.7 726.7 291.7 334.2 0 605.8-109 726.7-291.7 83.5-126.2 90.5-280.2 20.4-445.3-5.5-12.9-9.6-26.8-12.3-41.1-19-104.3-143.8-624.2-734.8-624.2z"/>
						</g>
					</g>
				</g>
				<g id="&lt;Group&gt;">
					<g id="&lt;Group&gt;">
						<path id="&lt;Path&gt;" class="s3" d="m1662.3 2330.9c0 47.9-38.8 86.8-86.8 86.8-47.9 0-86.7-38.9-86.7-86.8 0-47.9 38.8-86.8 86.7-86.8 48 0 86.8 38.9 86.8 86.8z"/>
					</g>
					<g id="&lt;Group&gt;">
						<path id="&lt;Compound Path&gt;" class="s1" d="m1575.5 2435.8c-57.8 0-104.9-47.1-104.9-104.9 0-57.8 47.1-104.9 104.9-104.9 57.9 0 104.9 47.1 104.9 104.9 0 57.8-47 104.9-104.9 104.9zm0-173.6c-37.8 0-68.7 30.8-68.7 68.7 0 37.9 30.9 68.7 68.7 68.7 37.9 0 68.7-30.8 68.7-68.7 0-37.9-30.8-68.7-68.7-68.7z"/>
					</g>
				</g>
				<g id="&lt;Group&gt;">
					<g id="&lt;Group&gt;">
						<path id="&lt;Path&gt;" class="s2" d="m1626.4 2773.5c-56.5 27.8-105.6 43.6-148.3 51.1-63.6 11.3-112.6 3.9-149.8-11.1-64-25.7-106.9-86.7-112.7-155.5-19.5-233.8 208-336.6 208-336.6 16.3 10.7 72.4 40.2 72.4 40.2 0 0 0 0 0 0 333.6-228.2 441.1 259.8 130.4 411.9z"/>
					</g>
					<g id="&lt;Group&gt;">
						<path id="&lt;Path&gt;" class="s3" d="m1638.5 2785.7c-56.5 27.7-105.7 43.6-148.3 51.1-224.7-75.7-66-297.5-66-297.5 30-141.5 83.8-165.5 83.8-165.5 0 0 0 0 0.1-0.1 333.6-228.2 441.1 259.9 130.4 412z"/>
					</g>
					<g id="&lt;Group&gt;" style="opacity: .3">
						<path id="&lt;Path&gt;" class="s1" d="m1641.4 2703.5c-56.5 27.8-105.6 43.6-148.3 51.1-63.6 11.3-112.6 3.9-149.8-11.1-64-25.7-106.9-86.7-112.7-155.5-1.6-20.3-1.4-39.6 0.3-58-12.8 37.3-19.3 79.9-15.3 128 5.8 68.8 48.7 129.8 112.7 155.5 37.2 15 86.2 22.4 149.8 11.1 42.7-7.5 91.8-23.4 148.3-51.1 116.8-57.1 174.5-161.7 183.3-257.9-25 73.7-79.5 144.5-168.3 187.9z"/>
					</g>
					<g id="&lt;Group&gt;">
						<path id="&lt;Compound Path&gt;" class="s1" d="m1419.3 2848.4c-35.3 0-67.9-6-97.8-18.1-68.9-27.7-117.6-94.8-123.9-170.8-8.4-101 26.8-194.5 101.8-270.2 56.1-56.6 114.2-83.3 116.7-84.4 5.6-2.5 12.1-2 17.3 1.4 11.6 7.5 45 25.5 61.5 34.3 90.4-59.1 175-72.6 239.2-37.9 60.2 32.6 96.6 106.4 94.9 192.7-2 97.2-54.1 225.6-194.6 294.4-79.6 39-151.6 58.6-215.1 58.6zm3.3-506.3c-17.3 9.2-58.8 33.4-98.3 73.5-67.7 68.8-98.2 149.9-90.6 240.9 5.2 62.5 45 117.6 101.4 140.3 73.9 29.7 169.2 16.4 283.4-39.5 125.8-61.6 172.5-176.1 174.3-262.6 1.4-72.7-27.7-134.1-75.9-160.1-53.8-29.1-128.6-14.2-210.7 42-5.6 3.8-12.7 4.2-18.7 1.1-2-1.1-42.7-22.6-64.9-35.6z"/>
					</g>
					<g id="&lt;Group&gt;">
						<path id="&lt;Path&gt;" class="s1" d="m1506.2 2376.6c-0.5 0.4-2.5 2-3.8 3.3-1.5 1.3-3 2.9-4.5 4.3-3 3-6 6.1-8.8 9.6-5.7 6.7-11 14.1-16 21.6-10.1 15.2-18.4 32-25.6 49.3l-5.3 13.1-4.5 13.5-2.4 6.7-2 6.9c-1.3 4.6-2.8 9.2-4.2 13.8-2.5 9.3-4.8 18.7-7.6 28.1-2.1 9.5-4.4 19.1-7.2 28.7v0.1c-0.4 1.2-1.6 1.8-2.7 1.5-0.9-0.2-1.5-1-1.6-1.9-1.1-9.9-1.8-19.9-2.2-30 0.1-5 0.2-10 0.4-15 0.2-5.1 0.2-10.1 0.7-15.1 2-20.1 5.2-40.2 11.1-59.9 5.7-19.7 13.2-39.2 23.5-57.6 5.4-9.1 10.9-18.2 17.8-26.6 3.3-4.2 7-8.3 10.8-12.3 2-2 3.8-4 6.1-5.9 2.3-2 4.1-3.6 7.5-6.1 8.1-5.8 19.4-3.9 25.2 4.2 5.6 7.8 4.1 18.6-3.3 24.6z"/>
					</g>
					<g id="&lt;Group&gt;">
						<path id="&lt;Path&gt;" class="s1" d="m1611.5 2317.5c-2.4 9.5-5.7 19.1-8.9 28.6-3.3 9.4-6.8 18.9-10.5 28.3-3.5 9.4-7.3 18.8-11.5 28.2-4.2 9.3-8.4 18.7-13.9 28-0.7 1.3-2.3 1.7-3.6 1-0.7-0.4-1.1-1.1-1.2-1.8-1.9-10.7-2.2-21.3-2-31.9 0.4-10.4 1.3-20.9 2.9-31.1 1.4-10.3 3.3-20.5 5.6-30.5 2.3-10.2 4.9-20 8.7-29.9 3.5-9.4 13.9-14.2 23.3-10.6 8.7 3.2 13.5 12.6 11.2 21.4z"/>
					</g>
					<g id="&lt;Group&gt;">
						<path id="&lt;Path&gt;" class="s1" d="m1793.9 2372.2c-2.3 9.1-5.6 18.2-9 27.1-3.3 8.9-7.1 17.7-11 26.4-3.8 8.8-8.1 17.5-12.6 26.1-4.4 8.6-9.1 17.1-14.6 25.7-1.1 1.6-3.2 2.1-4.9 1.1-0.9-0.6-1.4-1.5-1.5-2.5-1.4-10.3-1.2-20.4-0.5-30.3q1.1-15 3.8-29.4c1.8-9.7 3.9-19.2 6.6-28.6 2.6-9.4 5.5-18.6 9.6-27.7 4-9.1 14.7-13.3 23.9-9.2 8.2 3.7 12.4 12.7 10.2 21.1z"/>
					</g>
				</g>
				<g id="&lt;Group&gt;">
					<g id="&lt;Group&gt;">
						<path id="&lt;Path&gt;" class="s5" d="m1496 2361.6c0 0-39.6 25.8-63.5 91.1-5.6 15.4-10.5 32.9-13.6 52.9 0 0-82.8-41.7-183.3-5.5 0 0 8.9-31.7 32.7-69.5 26.8-42.6 72.6-93 146.2-115 0 0 28 22.4 81.5 46z"/>
					</g>
					<g id="&lt;Group&gt;">
						<path id="&lt;Path&gt;" class="s3" d="m1432.5 2452.7c-5.6 15.4-10.5 32.9-13.6 52.9 0 0-82.8-41.7-183.3-5.5 0 0 8.9-31.6 32.7-69.5q0 0 0 0c0 0 89.5-23.7 164.2 22.1 0 0 0 0 0 0z"/>
					</g>
					<g id="&lt;Group&gt;" style="opacity: .3">
						<path id="&lt;Path&gt;" class="s1" d="m1414.5 2315.6c-19.2 5.8-36.5 13.5-52 22.4 8.6 5.5 20.3 12.5 35 20.1 12.7 6.5 15.8 23.3 6.2 34-12.9 14.6-29 37.6-41.2 70.6-2.8 7.8-5.5 16.1-7.8 25 39.1 5.3 64.2 17.9 64.2 17.9 3.1-20 8-37.5 13.6-52.9 23.9-65.3 63.5-91.1 63.5-91.1-53.5-23.6-81.5-46-81.5-46z"/>
					</g>
					<g id="&lt;Group&gt;">
						<path id="&lt;Path&gt;" class="s1" d="m1423.4 2467.6c-67.2-41.2-149.8-20.3-150.7-20.1l-8.9-33.8c4-1.1 97.7-25.1 177.9 24.1z"/>
					</g>
					<g id="&lt;Group&gt;">
						<path id="&lt;Compound Path&gt;" class="s1" d="m1418.8 2523.7c-2.7 0-5.5-0.6-8.1-1.9-0.8-0.4-77.6-37.6-168.9-4.7-6.4 2.3-13.5 0.9-18.5-3.7-5-4.7-6.9-11.6-5.1-18.2 1.7-6.2 44.2-153.2 191.2-196.9 5.7-1.7 11.8-0.5 16.4 3.2 0.3 0.2 27.3 21.4 77.5 43.6 6 2.7 10.1 8.5 10.7 15.1 0.5 6.6-2.6 13-8.2 16.6-2.1 1.4-53.8 37.2-69.1 131.7-0.9 5.7-4.5 10.6-9.6 13.2-2.6 1.4-5.4 2-8.3 2zm-98.5-56.5c36.4 0 66.2 7.3 85 13.6 13.5-57.7 39.4-94.2 58.3-114.4-25.3-12.7-42.9-24.1-52.3-30.7-82.6 28.1-126 96.3-145.4 137.1 19.3-4.1 37.5-5.6 54.4-5.6z"/>
					</g>
				</g>
				<g id="&lt;Group&gt;">
					<g id="&lt;Group&gt;">
						<path id="&lt;Path&gt;" class="s3" d="m2000 1160.8c555.8 0 679.1 243.2 679.1 243.2 47.2 115 60.4 202.2 60.4 202.2 0 0-131.9-255.5-739.5-255.5-607.6 0-739.5 255.5-739.5 255.5 0 0 13.2-87.2 60.4-202.2 0 0 123.3-243.2 679.1-243.2z"/>
					</g>
					<g id="&lt;Group&gt;">
						<path id="&lt;Path&gt;" class="s7" d="m2058.3 1255.2c0 32.2-26.1 58.2-58.3 58.2-32.2 0-58.3-26-58.3-58.2 0-32.2 26.1-58.3 58.3-58.3 32.2 0 58.3 26.1 58.3 58.3z"/>
					</g>
					<g id="&lt;Group&gt;">
						<path id="&lt;Compound Path&gt;" class="s1" d="m2739.5 1624.3c-6.6 0-12.9-3.6-16-9.8-0.3-0.5-33.5-61.7-138.2-122.3-97.4-56.3-278-123.4-585.3-123.4-589.8 0-722.2 243.2-723.5 245.7-4 7.9-13.2 11.7-21.6 8.9-8.5-2.7-13.7-11.2-12.3-19.9 0.5-3.7 14.1-90.7 61.5-206.4q0.3-0.7 0.6-1.3c1.4-2.7 34.4-66.2 137.9-128.9 93.5-56.7 266.1-124.2 557.4-124.2 291.3 0 463.9 67.5 557.4 124.2 103.5 62.7 136.5 126.2 137.9 128.9q0.3 0.6 0.6 1.3c47.4 115.7 61 202.7 61.5 206.4 1.4 8.7-3.8 17.2-12.3 19.9-1.8 0.6-3.7 0.9-5.6 0.9zm-739.5-291.7c317.9 0 505.5 70.8 606.8 130.2 43.4 25.5 75.3 51.1 98.2 73-9.2-33.5-22.8-76.5-42.3-124.1-3.1-5.6-35.5-60.9-127.1-115.6-89.4-53.5-255-117.2-535.6-117.2-526.5 0-656.1 220.7-662.7 232.8-19.5 47.6-33.1 90.6-42.3 124.1 22.9-21.9 54.8-47.5 98.2-73 101.3-59.4 288.9-130.2 606.8-130.2z"/>
					</g>
				</g>
			</g>
		</g>
	</g>
</svg>